/* XPM */
static char *aozh3_jdq16[] = {
/* columns rows colors chars-per-pixel */
"64 64 187 2 ",
"   c #4D3F38",
".  c #4F413B",
"X  c #61493E",
"o  c #684E41",
"O  c #6D5244",
"+  c #6E594F",
"@  c #68544B",
"#  c #725445",
"$  c #775846",
"%  c #745648",
"&  c #785748",
"*  c #7B5C4B",
"=  c #785340",
"-  c #665750",
";  c #695C56",
":  c #6F625C",
">  c #786155",
",  c #74655D",
"<  c #7A6459",
"1  c #6E6360",
"2  c #756A64",
"3  c #766C68",
"4  c #7C716C",
"5  c #7F7771",
"6  c #835F4C",
"7  c #84604C",
"8  c #89634E",
"9  c #846352",
"0  c #8C6651",
"q  c #8D6955",
"w  c #80675B",
"e  c #8C6D5D",
"r  c #866856",
"t  c #946A53",
"y  c #906E5C",
"u  c #986E56",
"i  c #95705B",
"p  c #9C735B",
"a  c #A1755D",
"s  c #856B60",
"d  c #847165",
"f  c #8C7163",
"g  c #83736C",
"h  c #8A7369",
"j  c #9A7461",
"k  c #9E7964",
"l  c #9D7C69",
"z  c #957665",
"x  c #847974",
"c  c #8B7B73",
"v  c #927D73",
"b  c #A17762",
"n  c #A47B64",
"m  c #AA7D65",
"M  c #A37D69",
"N  c #AE7F69",
"B  c #8A827E",
"V  c #87817D",
"C  c #978378",
"Z  c #9E897D",
"A  c #AC8066",
"S  c #A3806D",
"D  c #AE8269",
"F  c #A68167",
"G  c #B38267",
"H  c #B98466",
"J  c #B3856C",
"K  c #B8856B",
"L  c #B6886F",
"P  c #BC8A6D",
"I  c #A38B7E",
"U  c #AB8B79",
"Y  c #A38473",
"T  c #B58971",
"R  c #BC8C72",
"E  c #B48F7B",
"W  c #B98E78",
"Q  c #BF9075",
"!  c #B1907E",
"~  c #BC927C",
"^  c #C38D6E",
"/  c #C08F74",
"(  c #C49275",
")  c #CA9677",
"_  c #C4957B",
"`  c #C9967A",
"'  c #CC997C",
"]  c #D39B7C",
"[  c #D99F7D",
"{  c #8D8582",
"}  c #8F8A88",
"|  c #958A85",
" . c #9D928E",
".. c #9D9591",
"X. c #9B9A9B",
"o. c #9A9592",
"O. c #A28E84",
"+. c #A59289",
"@. c #B89887",
"#. c #A49C97",
"$. c #AD9D96",
"%. c #A49E9B",
"&. c #AFA09A",
"*. c #BCA192",
"=. c #B2A49C",
"-. c #B7A095",
";. c #A5A3A4",
":. c #AAA6A4",
">. c #ABAAAA",
",. c #B2A7A2",
"<. c #B4A8A3",
"1. c #B2AEAD",
"2. c #B8AEAA",
"3. c #BAABA1",
"4. c #B7B1AF",
"5. c #B6B5B4",
"6. c #BAB3B0",
"7. c #BEB9B7",
"8. c #BBBABA",
"9. c #C19985",
"0. c #C29E89",
"q. c #CB9C80",
"w. c #D49F81",
"e. c #D5A081",
"r. c #DCA484",
"t. c #DDA78B",
"y. c #D2A58C",
"u. c #CCAB9A",
"i. c #E3A684",
"p. c #E3A986",
"a. c #E9AA85",
"s. c #E4AB89",
"d. c #EAAE8B",
"f. c #EEB28E",
"g. c #F1B38E",
"h. c #EEB390",
"j. c #F2B591",
"k. c #F8B792",
"l. c #F6B893",
"z. c #FABA95",
"x. c #FCBD99",
"c. c #C3AFA4",
"v. c #C5B5AC",
"b. c #D7B9AB",
"n. c #C1B8B5",
"m. c #FFC09B",
"M. c #C4C0BD",
"N. c #C4C4C3",
"B. c #C9C6C4",
"V. c #C7C8CA",
"C. c #CCCCCC",
"Z. c #CED0D1",
"A. c #D3D4D4",
"S. c #D5D7D8",
"D. c #D7D9DB",
"F. c #DBDCDC",
"G. c #FBDBCA",
"H. c #DDDFE0",
"J. c #DEE1E2",
"K. c #E2E3E4",
"L. c #E4E7E8",
"P. c #E9EBEC",
"I. c #E7EAED",
"U. c #EBEFF1",
"Y. c #EEF1F3",
"T. c #F2F5F5",
"R. c #F2F6F8",
"E. c #F6FAFB",
"W. c #FBFBFB",
"Q. c #FCFBFB",
"!. c #FAFBFC",
"~. c #FAFFFF",
"^. c #FAFDFF",
"/. c #FDFCFC",
"(. c #FDFDFC",
"). c #FDFDFD",
"_. c #FCFCFC",
"`. c #FEFDFD",
"'. c #FEFDFC",
"]. c #FEFEFD",
"[. c #FDFFFF",
"{. c #FEFEFE",
"}. c #FFFEFE",
"|. c #FEFFFF",
" X c #FFFFFF",
".X c #FEFEFF",
"XX c #FFFFFF",
/* pixels */
" X X X X X X X X X X X X X X X X X X X X X X X X X X X X X X X X X X X X X X X X X X X X X X X X X X X X X X X X X X X X X X X X",
" X X X X X X X X X X X X X X X X X X X X X X X X X X X X X X X X X X X X X X X X X X X X X X X X X X X X X X X X X X X X X X X X",
" X X X X X X X X X X X X X X X X X X X X X X X X X X X X X X X X X X X X X X X X X X X X X X X X X X X X X X X X X X X X X X X X",
" X X X X X X X X X X X X X X X X X X X X X X X X X X X X X X X X X X X X X X X X X X X X X X X X X X X X X X X X X X X X X X X X",
" X X X X X X X X X X X X X X X X X X X X X X X X X X X X X X X X X X X X X X X X X X X X X X X X X X X X X X X X X X X X X X X X",
" X X X X X X X X X X X X X X X X X X X X X X X X X X X X X X X X X X X X X X X X X X X X X X X X X X X X X X X X X X X X X X X X",
" X X X X X X X X X X X X X X X X X X X X X X X X X X X X X X X X X X X X X X X X X X X X X X X X X X X X X X X X X X X X X X X X",
" X X X X X X X X X X X X X X X X X X X X X X X X X X X X X X X X X X X X X X X X X X X X X X X X X X X X X X X X X X X X X X X X",
" X X X X X X X X X X X X X X X X X X X X X X X X X X X X X X X X X X X X X X X X X X X X X X X X X X X X X X X X X X X X X X X X",
" X X X XR.B 5 T. X X X X X X X X X X X X X X X X X X X X X X X X X X X X X X X X X X X X X X X X X X X X X X X XY.4 } Q. X X X X",
" X X X X%.^ H V  X X X X X X X X X X X X X X X X X X X X X X X X X X X X X X X X X X X X X X X X X X X X X X X Xx ^ P :. X X X X",
" X X XE.I k.m.0 V. X X X X X X X X X X X X X X X X X X X X X X X X X X X X X X X X X X X X X X X X X X X X X X8.q m.g.I _. X X X",
" X X XT.v s.l.] 4  X X X X X X X X X X X X X X X X X X X X X X X X X X X X X X X X X X X X X X X X X X X X X X2 [ l.i.C Q. X X X",
" X X X X .q.j.j.9 N. X X X X X X X X X X X X X X X X X X X X X X X X X X X X X X X X X X X X X X X X X X X X8.0 l.j.` .. X X X X",
" X X X X:.W j.l.K B  X X X X X X X X X X X X X X X X X X X X X X X X X X X X X X X X X X X X X X X X X X X Xx P j.j.T 1. X X X X",
" X X X XC.M l.j.[ w Y. X X X X X X X X X X X X X X X XQ. X X X X X X X XQ. X X X X X X X X X X X X X X X XI.w r.j.l.l S. X X X X",
" X X X XU.U g.f.d.r F. X X X X X X X X X X X X X X X X X X X X X X X X X X XQ. X X X X X X X X X X X X X XA.q f.f.g.U T. X X X X",
" X X X X_.*.g.h.g.y S. X X X X X X X X X X X X X X XD.>.Z. X X X X X XC.>.F. X X X X X X X X X X X X X X XC.i j.f.d.*. X X X X X",
" X X X X Xc.d.h.l.p S. X X X X X X X X X X X X X X;.y n 9 V. X X X XN.9 n e >. X X X X X X X X X X X X X XZ.p l.h.a.v. X X X X X",
" X X X X Xc.i.h.l.k S. XQ. X X X X X X X XQ. XE.{ J t.u._ O. X X X XZ _ u.t.N } _. XQ. X X X X X X X X X XA.n l.f.[ v. X X X X X",
" X X X X X$.H f.l.n D. X X X_. X X X X XQ. XK.g ] l.u.G.~ c  X X X_.h 9.G.u.l.` x I. XQ. X X X X X_. X X XA.m z.d.G =. X X X X X",
" X X X X X-.g.f.l.A A. XD.B g :. X X X X XV.f s.z.d.y.b.* o. X X X X| 9 b.y.f.x.i.h Z. X X X X X%.d { J. XC.D l.h.d.=. X X X X X",
" X X X XE.@.g.f.l.m K.Z.e i.x.G 8. X X X>.M k.j.d.f.h.q - T. X X X XI.@ i j.f.d.l.l.k 5. XQ. X5.K x.r.e S.F.A l.f.g.*._. X X X X",
" X X X XU.9.l.f.j.R %.Y x.l.h.g.v  X X..L l.g.f.g.x.G : I. X X X X X XK.; P x.f.f.f.l.J %. XE.z g.f.z.z.Y %.R j.f.g.@.T. X X X X",
" X X X XH._ l.f.l.b j x.f.f.f.j.b F.#.] l.q s.j.h.a 2 E. X X X X X X X XT.1 n h.l.r.q x.) :.S.b l.f.f.f.x.y m l.f.l._ L. X X X X",
" X X X XC.` l.f.d.J j.g.f.f.f.j.F c s.z.j.b D e.8 3  X X X X X X X X XQ. XQ.2 t e.m n j.z.r.x D j.f.f.f.g.h.J f.f.l.` A. X X X X",
" X X X XM.] l.f.f.h.h.f.f.f.j.i.9 ( l.f.l.] n 8 5  X X X X X X X X X X X X XQ.3 0 n w.l.f.l.R 9 s.g.f.f.f.f.g.f.f.l.' B. X X X X",
" X X X X6.r.j.f.f.f.f.f.f.f.l.j W ( b j.e.J 8 B  X X X X X X X X X X X X X X X_.x 0 J e.h.p ` T b l.f.f.f.f.f.f.f.l.] 7. X X X X",
" X X X X<.i.j.f.f.f.f.f.f.l.R m x.J q R D 0 }  X X X X X X X X X X X X X X X X X X{ 0 D R q R x.n ( l.f.f.f.f.f.f.j.r.2. X X X X",
" X X X X=.a.j.f.f.f.f.f.j.r.R j.g.d.m n u {  X X X X X X X X X X X X X X X X X X X Xc p n D f.g.g.L s.g.f.f.f.f.f.j.i.<. X X X X",
" X X X X$.d.f.f.f.f.f.f.h.d.j.g.g.d.D a d T. X X X X X X X X X X X X X X X X X X X XP.s n G f.f.f.j.d.f.f.f.f.f.f.j.a.=. X X X X",
" X X X X$.d.f.f.f.f.f.f.f.g.h.f.j.( m f I. X_. X X X X X X X X X X X X X X X X X X X XK.e m ` j.f.f.f.f.f.f.f.f.f.j.a.$. X X X X",
" X X X X$.d.f.f.f.f.f.f.f.f.f.g.d.D o . X. X X X X X X X X X X X X X X X X X X X X X Xo.  O G d.f.f.f.f.f.f.f.g.f.j.a.=. X X X X",
" X X X X=.a.j.f.f.j.f.f.f.f.f.j.' X % D # 8. X X X X X X X X X X X X X X X X X X X X1.= G O o w.j.f.f.f.f.f.j.h.f.j.p.,. X X X X",
" X X X X<.i.j.j.r.' l.f.f.f.f.l.* * ` s.a. . X X X X X X X X X X X X X X X X X X X XZ d.s.` % r l.f.f.f.f.l.' p.g.j.i.1. X X X X",
" X X X X6.r.j.f.f.R f.f.f.f.z.R * p.j.f.l.! Y. X X X X X X X X X X X X X X X X X XP.E k.f.h.r.* ` l.f.f.f.f.R f.f.l.] 7. X X X X",
" X X X XB.' l.f.g.h.f.f.f.f.h.L s.j.f.f.l.~ L. X X X X X X X X X X X X X X X X X XJ.~ l.f.f.l.s.L j.f.f.f.f.j.f.f.l.` C. X X X X",
" X X X XF.( l.f.f.f.f.g.f.f.f.h.g.f.f.f.g.0._. X X X X X X X X X X X X X X X X X XE.0.l.f.f.f.j.f.f.f.f.j.f.f.f.f.l.~ K. X X X X",
" X X X XR.@.g.f.f.j.r.e.l.f.f.f.f.f.f.j.p.< C. X X X X X X X X X X X X X X X X X XN.< d.g.f.f.f.f.f.f.l.] p.j.f.f.g.@.E. X X X X",
" X X X X X=.a.h.f.f.f.m ] j.f.f.f.f.d.x.i q * Z. X X X X X X X X X X X X X X X XB.7 q j x.d.f.f.f.f.j.] A f.f.f.j.i.3. X X X X X",
" X X X X XB.] j.f.f.j.d.r.j.f.f.f.f.x.T O w.i.+. X X X X X X X X X X X X X X X XO.a.' O R x.f.f.f.f.j.r.d.j.f.f.l.] C. X X X X X",
" X X X X X%.( l.f.f.f.j.j.f.f.f.f.z.e.X ( j.g.I E. X X X X X X X X X X X X X XR.U l.j.R X r.l.f.f.f.f.j.h.f.f.f.z.P :. XQ. X X X",
" X X X XP.> ] l.f.f.f.h.f.f.f.f.g.s.# R j.l.] %. X X X X X X X X X X X X X X X X+.[ j.j.J % d.g.f.f.f.f.f.f.f.f.l.) < T. X X X X",
" X X X X4.6 r.j.f.f.f.f.f.f.f.f.l.D ` l.d.l.l J. X X X X X X X X X X X X X X X XD.n z.f.z.( D j.f.j.f.f.f.f.f.f.j.e.6 8. X X X X",
" X X X X .u r.j.f.f.f.f.f.f.s.j.f.h.l.f.l.] %. X X X X X X X X X X X X X X X X X X..[ j.f.l.f.f.j.s.f.f.f.f.f.f.j.r.t #. X X X X",
" X X X X .t ] j.f.f.f.f.f.j.] ( j.f.f.f.k.S I. X X X X X X X X X X X X X X X X X XJ.S l.f.f.f.j.( ] j.f.f.f.f.f.g.' t #. X X X X",
" X X X X:.0 ( j.f.f.f.f.f.f.h.e.f.f.f.l.] 1. XQ. X X X X X X X X X X X X X X X X X X,.[ j.f.f.d.r.j.f.f.f.f.f.f.h.R 8 1. X X X X",
" X X X XA.* D p.j.f.f.f.f.f.f.j.f.f.f.g.! Y. X X X X X X X X X X X X X X X X X X X XU.E l.f.f.g.j.f.f.f.f.f.f.g.r.D * D. X X X X",
" X X X X Xg p ` l.f.f.f.f.f.f.f.f.f.z.] M. X X X X X X X X X X X X X X X X X X X X X Xn.] l.h.f.f.f.f.f.f.f.f.j.` u x  X X X X X",
" X X X X XV.* J s.j.f.f.f.f.f.f.f.p.i.I _. X X X X X X X X X X X X X X X X X X X X X XR.Z i.p.h.f.f.f.f.f.f.j.t.D * Z. X X X X X",
" X X X X X X..t R f.l.g.f.f.f.f.m.] + K. X X X X X X X X X X X X X X X X X X X X X X X XD.+ [ m.f.f.f.f.f.j.d.T 0 %. XQ. X X X X",
" X X X X X XT.d a J e.d.f.j.x.j.N x K. X X X X X X X X X X X X X X X X X X X X X X X X X XF.g G l.x.j.f.d.e.J a h Q. X X X X X X",
" X X X X X X XF.> p D J R K t < :. X XQ. X X X X X X X X X X X X X X X X X X X X X X X X X X_.;.< t L R J G p < K. X X X X X X X",
" X X X X X X X XS., & * o ; X.Y. X X X X X X X X X X X X X X X X X X X X X X X X X X X X X X X XP.X.; o * $ , F. X X X X X X X X",
" X X X X X X X X XE.5.:.Z. X X X X X X X X X X X X X X X X X X X X X X X X X X X X X X X X X X X X X_.C.;.8.Q. X X X X X X X X X",
" X X X X X X X X X X X X X XQ. X X X X X X X X X X X X X X X X X X X X X X X X X X X X X X X X X XQ. X X X X X X X X X X X X X X",
" X X X X X X X X X X XQ. X X X X X X X X X X X X X X X X X X X X X X X X X X X X X X X X X X X X X X X X X X X X X X X X X X X X",
" X X X X X X X X X X X X X X X X X X X X X X X X X X X X X X X X X X X X X X X X X X X X X X X X X X X X X X X X X X X X X X X X",
" X X X X X X X X X X X X X X X X X X X X X X X X X X X X X X X X X X X X X X X X X X X X X X X X X X X X X X X X X X X X X X X X",
" X X X X X X X X X X X X X X X X X X X X X X X X X X X X X X X X X X X X X X X X X X X X X X X X X X X X X X X X X X X X X X X X",
" X X X X X X X X X X X X X X X X X X X X X X X X X X X X X X X X X X X X X X X X X X X X X X X X X X X X X X X X X X X X X X X X",
" X X X X X X X X X X X X X X X X X X X X X X X X X X X X X X X X X X X X X X X X X X X X X X X X X X X X X X X X X X X X X X X X",
" X X X X X X X X X X X X X X X X X X X X X X X X X X X X X X X X X X X X X X X X X X X X X X X X X X X X X X X X X X X X X X X X",
" X X X X X X X X X X X X X X X X X X X X X X X X X X X X X X X X X X X X X X X X X X X X X X X X X X X X X X X X X X X X X X X X"
};
