/* XPM */
static char *ad3dj_i7n80[] = {
/* columns rows colors chars-per-pixel */
"64 64 241 2 ",
"   c #5F2716",
".  c #6E301D",
"X  c #7C341C",
"o  c #682914",
"O  c #753A25",
"+  c #6A3A29",
"@  c #754533",
"#  c #89381C",
"$  c #973B1A",
"%  c #93300E",
"&  c #8C3F24",
"*  c #9D411F",
"=  c #88432B",
"-  c #93452A",
";  c #9D492C",
":  c #994629",
">  c #884935",
",  c #994D32",
"<  c #9A5539",
"1  c #8D563F",
"2  c #A34B2C",
"3  c #A84C2D",
"4  c #A64E30",
"5  c #A75436",
"6  c #B8502C",
"7  c #C7552C",
"8  c #CB5C38",
"9  c #CA5C35",
"0  c #D15F37",
"q  c #D2582E",
"w  c #E25B2B",
"e  c #CA613D",
"r  c #DD663B",
"t  c #D5623A",
"y  c #E5673B",
"u  c #995D47",
"i  c #A55D44",
"p  c #976756",
"a  c #A9715E",
"s  c #A56852",
"d  c #987E76",
"f  c #AE7A64",
"g  c #C4775A",
"h  c #D46945",
"j  c #CE7D62",
"k  c #E96D40",
"l  c #B8AB5F",
"z  c #9E8474",
"x  c #B98269",
"c  c #AA8777",
"v  c #B78975",
"b  c #B8927D",
"n  c #A1816E",
"m  c #B9AA6E",
"M  c #C7896B",
"N  c #DD926D",
"B  c #C98E72",
"V  c #C7957A",
"C  c #D59473",
"Z  c #DC9673",
"A  c #DB9977",
"S  c #E3946D",
"D  c #E49A75",
"F  c #EA9E78",
"G  c #E69D78",
"H  c #F19D74",
"J  c #C8B56C",
"K  c #C5A67B",
"L  c #CAB576",
"P  c #D0B176",
"I  c #F4A47C",
"U  c #F8A67E",
"Y  c #E7A17D",
"T  c #DCC375",
"R  c #D7C379",
"E  c #E5C976",
"W  c #E6CA78",
"Q  c #EED07B",
"!  c #F3D27E",
"~  c #F9D57C",
"^  c #B98A83",
"/  c #BC9983",
"(  c #B69886",
")  c #B49D95",
"_  c #A99285",
"`  c #BAA486",
"'  c #BCA498",
"]  c #BBAAA2",
"[  c #BDB2A3",
"{  c #BDB4B0",
"}  c #C39680",
"|  c #C49C85",
" . c #CA958E",
".. c #C79888",
"X. c #D49D84",
"o. c #D69E84",
"O. c #C99892",
"+. c #D79E97",
"@. c #C28E86",
"#. c #E19C93",
"$. c #C3A38A",
"%. c #CCA48C",
"&. c #C7A987",
"*. c #DEA285",
"=. c #DAA58D",
"-. c #D5A78A",
";. c #CCB283",
":. c #D1B585",
">. c #D3B48D",
",. c #DBB989",
"<. c #C2A395",
"1. c #C8A997",
"2. c #D6AA91",
"3. c #DAAE93",
"4. c #D9A59A",
"5. c #C9B596",
"6. c #DABB96",
"7. c #D7B897",
"8. c #E5AA8D",
"9. c #ECAA8B",
"0. c #E5A585",
"q. c #F1AE8E",
"w. c #F9A981",
"e. c #E4BA8B",
"r. c #E8BB89",
"t. c #F4B08F",
"y. c #FEB28B",
"u. c #E3A39A",
"i. c #EAA89E",
"p. c #E7AA98",
"a. c #E6B899",
"s. c #F4B292",
"d. c #FCB592",
"f. c #FFBC9A",
"g. c #FCB995",
"h. c #C4ABA5",
"j. c #D7ACA6",
"k. c #C5B4AC",
"l. c #CAB5A9",
"z. c #D4B2A4",
"x. c #DCBCAC",
"c. c #D3B9A8",
"v. c #CABBB4",
"b. c #D8BDB2",
"n. c #EBABA2",
"m. c #F6ADA2",
"M. c #E3BEAB",
"N. c #E2B8A3",
"B. c #F5B2A7",
"V. c #FBB4AA",
"C. c #F9B3A9",
"Z. c #E0BBB7",
"A. c #DAC489",
"S. c #DCC398",
"D. c #CDC394",
"F. c #E4C48C",
"G. c #EDC28C",
"H. c #E8C788",
"J. c #F3C38E",
"K. c #F8C58E",
"L. c #FCDA84",
"P. c #FFDE89",
"I. c #F4D385",
"U. c #ECCC92",
"Y. c #E3C39D",
"T. c #E9C99B",
"R. c #F5C691",
"E. c #FDCC94",
"W. c #FFC19D",
"Q. c #FAC895",
"!. c #FED395",
"~. c #FCD49A",
"^. c #FFDB9A",
"/. c #FAD796",
"(. c #EDD09A",
"). c #CCC5AA",
"_. c #D8C5AB",
"`. c #CBC2BA",
"'. c #D3C5BC",
"]. c #DAC6BD",
"[. c #DBCCBB",
"{. c #D8C6B7",
"}. c #D4D1BB",
"|. c #E4C5A2",
" X c #ECCBA4",
".X c #E5C4AE",
"XX c #F3D1A6",
"oX c #F8D6AB",
"OX c #F9D6A9",
"+X c #EAC5B3",
"@X c #E7C8B7",
"#X c #F3CCB7",
"$X c #FBD2BD",
"%X c #F8D3B8",
"&X c #EBCEAD",
"*X c #D3CAC4",
"=X c #D8CAC5",
"-X c #DDD3CC",
";X c #DAD5C9",
":X c #DBD5D2",
">X c #DEDEDC",
",X c #DDD9D5",
"<X c #D7CBC8",
"1X c #E3CDC2",
"2X c #E3D3CC",
"3X c #E4DDCD",
"4X c #E9D5CC",
"5X c #FFDAC3",
"6X c #FFDAC4",
"7X c #E4DAD4",
"8X c #E2DEDC",
"9X c #E8DBD5",
"0X c #DFE0DC",
"qX c #E1E1DE",
"wX c #EAE3DC",
"eX c #E8E4D6",
"rX c #E7E3CA",
"tX c #E4E4E3",
"yX c #EBE6E5",
"uX c #EBE9E6",
"iX c #ECECEB",
"pX c #EAE7E8",
"aX c #F1EEEC",
"sX c #F0E6E2",
"dX c #EDF0EF",
"fX c #F2F2EE",
"gX c #ECEFF0",
"hX c #EEF1F0",
"jX c #F4F4F4",
"kX c #F8F7F6",
"lX c #F8F8F7",
"zX c #F5F7F8",
"xX c #F6F9FA",
"cX c #FDFDFD",
"vX c #FDFCFC",
"bX c #FEFEFE",
"nX c #FFFFFF",
"mX c #FFFFFE",
"MX c #FEFEFD",
"NX c #FDFDFD",
"BX c #F8F8F8",
/* pixels */
"jXjXiXiXiXjXjXjXjXjXjXiXiXiXjXjXjXiXiXiXiXiXiXiXiXiXiXiXiXiXiXiXiXiXiXiXiXiXiXiXiXiXiXiXiXiXiXuXuXiXtXtXtXtXtXtXtXtXtXtXtXtXtXtX",
"jXjXjXiXiXdXdXdXhXiXiXiXiXiXiXiXiXiXiXiXiXiXiXiXiXiXiXiXiXiXiXiXiXiXiXiXiXiXiXiXiXiXiXiXiXiXiXuXtXpXtXtXtXtXtXtXtXtXtXtXtXtXtXtX",
"jXjXiXiXiXiXiXiXiXiXiXiXiXiXiXiXiXiXiXiXiXiXiXiXiXiXiXiXiXiXiXiXiXiXiXiXiXiXpXtXtXtXtXtXtXtXtXtXtXtXtXtXtXtXtXtXtXtXtXtXtXtXtXtX",
"jXdXiXbXbXbXbXbXbXbXbXbXbXbXbXbXbXbXbXbXbXbXbXbXbXbXbXbXbXbXbXbXbXbXbXbXbXbXbXbXbXbXbXbXbXbXbXbXbXbXbXbXbXbXbXbXbXbXbXbXbXtXqXtX",
"hXhXiXbXbXbXbXbXbXbXbXbXbXbXbXbXbXbXbXbXbXbXbXbXbXbXbXbXbXbXbXbXbXbXbXbXbXbXbXbXbXbXbXbXbXbXbXbXbXbXbXbXbXbXbXbXbXbXbXbXbXtXqXtX",
"hXhXiXbXbXbXbXbXbXbXbXbXbXbXbXbXbXbXbXbXbXbXbXbXbXbXbXbXbXbXbXbXbXbXbXbXbXbXbXbXbXbXbXbXbXbXbXbXbXbXbXbXbXbXbXbXbXbXbXbXbXtXqXtX",
"hXhXiXbXbXbXbXbXbXbXbXbXbXbXbXbXbXbXbXbXbXbXbXbXbXbXbXbXbXbXbXbXbXbXbXbXbXbXbXbXbXbXbXbXbXbXbXbXbXbXbXbXbXbXbXbXbXbXbXbXbXtXqXtX",
"hXhXiXbXbXbXbXbXbXbXbXbXbXjX8XbXbXbXbXbXbXbXbXbXbXuXwXbXbXbXbXbXbXbXbXbXbXwXuXbXbXbXbXbXbXbXbXbXBX*XkXbXbXbXbXbXbXbXbXbXbXtXqXtX",
"hXhXiXbXbXbXbXbXbXbXbXbXbX'.2.7XbXbXbXbXbXbXbXbXkX1...uXbXbXbXbXbXbXbXbXuX5.).xXbXbXbXbXbXbXbXbXh.1 ) bXbXbXbXbXbXbXbXbXbXtXqXtX",
"hXhXiXbXbXbXbXbXbXbXbXbXkXz.a.1XbXbXbXbXbXbXbXbXwX-.*.9XbXbXbXbXbXbXbXbX3XY.S.aXbXbXbXbXbXbXbXbXc u c bXbXbXbXbXbXbXbXbXbXtXqXtX",
"dXdXiXbXbXbXbXbXbXbXbXbXjXs.y.1XbXbXbXbXbXbXbXbXwXD F 9XbXbXbXbXbXbXbXbX3XI.U.fXbXbXbXbXbXbXbXbXa % v bXbXbXbXbXbXbXbXbXbXtXqXtX",
"dXdXiXbXbXbXbXbXbXbXbXbXxXa.d.1XbXbXbXbXbXbXbXbXwXF F 9XbXbXbXbXbXbXbXbX3X/.(.aXbXbXbXbXbXbXbXbXa $ v bXbXbXbXbXbXbXbXbXbXtXqXtX",
"dXiXiXbXbXbXbXbXbXbXbXkX'.s.d.1XbXbXbXbXbXbXbXuXl.I F 9XbXbXbXbXbXbXbXqX).^.(.fXbXbXbXbXbXbXbX{ u $ v bXbXbXbXbXbXbXbXbXbXtXqXtX",
"dXiXiXbXbXbXbXbXbXbXxX<.b 8.t.1XNXjXbXbXbXbXtXv x G D 9XNXjXbXbXbXbX:Xm K U.U.uXxXjXbXbXbXbXd   = $ c bXaXBXbXbXbXbXbXbXbXtXqXtX",
"dXiXiXbXbXbXbXbXbXbXh.*.8.=.*.2.3.-.[.bXbXjXb N C C C V o.B 9XbXbXtX&.F.,.A.,.6.S.>.aXbXbX) X - = & > u > f bXbXbXbXbXbXbXtXqXtX",
"aXiXiXbXbXbXbXbXbX=X0.W.q.s.f.8.f.s.=.aXbX%.S w.Z I F Z I N =.NXBX>.U.^.F.^.U.H.^.H..XbX'.X 3 : - 2 & : : # =XbXBXbXbXbXbXtXqXtX",
"hXiXiXbXbXbXbXbXNXN.9.W.8.s.f.8.f.s.0.9XjXC F I Z I F Z I D Z aXuXA././.F.^.U.U.^.F.F.NXv # 2 - - 2 - 2 , # ^ bXBXbXbXbXvXtXqXtX",
"hXiXiXbXbXbXbXbXbXz.8.W.8.g.f.8.f.s.9.@XkXB F I C I G Z U D S 9XfXP /./.F.^.U.U.^.F.H.jX( # 4 - - 2 = ; ; # a bXbXbXbXvXvXtXqXtX",
"hXiXiXbXbXbXbXbXbX].q.f.8.f.f.8.f.q.9.@XbX2.H F Z I F Z I Z S 4XNX6.^.U.U.^.U.F.^.F.H.fX*X# 4 - ; 2 = : : & s NXbXbXvXvXvXqXqXqX",
"hXiXuXbXbXbXbXbXbXwXs.W.f.f.f.f.f.f.q.9XbX@XH w.I I I I I I A aXbX&X^.^.^.^.^.^.^.!.Y.NXiX, 2 2 2 2 2 2 2 $ ' bXBXvXvXvXBXqXqXqX",
"hXiXiXbXbXbXbXbXbXkX%.o.=.=.X.=.=.o.x.bXbX8XM B C B B C B M =XbXbX;XP >.,.:.:.F.:.:.qXbXbXp X = = O = = O p vXbXBXvXBXBXBXqXqXqX",
"dXiXiXbXbXbXbXbXbXbX-Xb -.=.| =.X.| hXbXbXbXh.f C B v V M O.bXbXbXNX5.K 6.;.;.>.K ).bXvXbX:X+ O > + @ @ + :XbXBXvXvXBXBXBXqXqXqX",
"iXiXiXbXbXbXbXbXbXbXbX-Xb X.V o.V '.bXbXbXbXbXl.f M M B x 8XbXbXbXbXBX5.K ;.K :.` iXbXbXbXbX:X@ . . O o d bXBXvXvXBXBXBXBX0XqXqX",
"iXiXiXbXbXbXbXbXbXbXbXbX8X-X=X].<XNXbXbXbXbXbXbX-X=X'.b.:XbXbXbXbXbXbXkX-X-X;X}.wXbXbXbXbXvXbX8Xk.] ) ' jXbXvXvXBXBXBXBXBXqXqXtX",
"iXiXiXbXbXbXbXbXbXbXbXbXbXtX*XkXbXbXbXbXbXbXbXbXbX;X[.bXbXbXbXbXbXbXbXbXbXO.z.bXbXbXbXbXbXbXBXbXjXb.aXbXbXBXvXBXBXBXBXBXBXqXqXtX",
"iXiXiXbXbXbXbXbXbXbXbXbXBX`.].-XbXbXbXbXbXbXbXbXyXc.6.wXbXbXbXbXbXbXbXbX=Xg g uXbXvXbXbXbXbXbXbXv.3.c.NXBXvXBXBXBXBXBXBXBXqXqXtX",
"iXiXiXbXbXbXbXbXbXbXbXbXkX@X+X2XbXbXbXbXbXbXbXbXwXe.G.wXbXbXbXbXbXbXbXbXb.8 h uXbXbXbXbXbXbXbXNXz.9.x.NXvXBXBXBXBXBXBXBXBXqXqXtX",
"iXiXiXbXbXbXbXbXbXbXbXbXkX#X$X2XbXbXbXbXbXbXbXbXwXQ.Q.wXbXbXbXbXbXbXvXbXx.w h uXbXbXbXbXbXbXbXNXN.y.M.NXvXBXBXBXBXBXBXBXBXqXqXtX",
"iXiXiXbXbXbXbXbXbXbXbXbXiX#X$X2XbXbXbXbXbXbXbXbX7XQ.R.wXbXbXbXbXbXbXbXbXz.w h yXbXBXbXbXbXvXbXxXa.y.M.xXlXBXBXBXBXBXBXBXBX>XqXtX",
"iXiXiXbXbXbXbXbXbXbXbX:X' #X$X9XbXbXbXbXbXbXbX`.$.E.K.uXbXbXbXbXbXbXvXc i y h jXbXbXbXbXBXbX8X) =.y.M.bXbXbXBXBXBXBXBXBXBX>XqXqX",
"iXiXiXbXbXbXbXbXbXbX>X<.1.x.M.].8X<XiXbXbXbX`.K K e.e.[.3X[.kXbXbXbXc : 5 9 e c.b.z.NXbXbXpXb V o.0.3.-X].9XbXBXBXBXBXBXBX>XqXqX",
"iXiXiXbXbXbXbXbXbXuXl.$X+X+X+Xx.+XN.{.vXbX-XP E.r.G.e.,.J.P @XbXbX<.6 y 8 t 9 7 q 6 b.bXjX$.9.9.0.9.o.0.G -.aXvXkXBXBXkXkX>XqXqX",
"iXiXiXbXbXbXbXbXbX].+X6X+X%X5X.X6X%XM.yXvX>.K.!.e.E.Q.r.~.r.e.xXsX6 r y 8 y t t y 7 g NX@XA f.9.9.g.0.d.s.A 1XNXkXkXkXkXBX>X8XqX",
"iXiXtXbXbXbXbXbXNX].+X6X+X%X$X.X5X#X.X9XfX,.R.!.e.E.R.r.!.r.r.aX4X7 r r 8 y 0 t y 9 e iX.X0.f.9.9.d.0.s.t.Y M.xXkXkXkXkXkX>XqXqX",
"iXiXtXbXbXbXbXbXbX'..X6Xx.$X$Xx.5X+X+X4XvX>.K.E.e.!.J.e.!.e.r.eXaX5 y t 9 y 8 9 y 9 9 9X=XA f.*.9.d.o.t.q.0.a.jXlXkXkXkXkX>XqXqX",
"iXiXtXbXbXbXbXbXbX9X%X5X%X5X5X+X5X%X#X2XbX.XE.E.Q.!.E.G.E.J.G.eXbXj y r r y r t y 0 e uXyX9.g.q.d.d.9.s.s.9.N.xXkXkXkXkXkX>X0XqX",
"iXiXtXbXbXbXbXbXbXiX.X$X%X#X+X%X$X%X@XiXbX2Xr.Q.R.G.r.Q.R.K.|.xXbX..q r t 8 t r r q ..bXhX=.q.s.9.0.9.t.q.0.7XNXkXkXkXkXkX>X0XqX",
"iXiXtXbXbXbXbXbXbXbXv.' z.z.<.z.1.<.,XbXbXjX$.V >.&.K :.V $.iXbXbX,X- , 5 , , 5 - p jXvXNXv.x } X.b ..} v v.NXkXkXkXkXkXkX>X8X0X",
"iXiXtXbXbXbXbXbXbXbXjXk.z.x.1.x.z.k.bXbXbXbX8X&.:.:.K ,.K '.bXvXvXbXk., 4 , , 5 - v.bXBXbXkX1.V X.V X.o./ iXBXkXkXkXkXkXkX>X>XqX",
"iXiXtXbXbXbXbXbXbXbXbXjX[ l.c.l.h.qXbXbXbXbXbXqX` 5.>.&.<.jXbXbXbXvXbXv.u s u < c NXBXBXBXBXxX] | %.| / *XNXkXkXkXkXkXkXkX>X>X0X",
"iXiXpXbXbXbXbXbXbXbXbXbXbXtX`.iXBXbXbXbXbXbXbXbXbX,X}.iXBXbXvXbXbXbXvXbXNX*X<XiXNXbXBXBXBXBXBXbXiX`.8XiXBXkXkXkXkXkXkXkXkX>X>X>X",
"iXiXpXbXbXbXbXbXbXbXbXbXbXv.' :XbXbXbXbXbXbXbXbXjXD.A.uXbXvXbXbXbXbXvXbXtXj.j.kXbXBXBXBXBXBXkXbX*X7.[.bXkXkXkXkXkXkXkXkXkX>X>X>X",
"iXiXtXbXbXbXbXbXbXbXbXbXkX1.1.'.bXbXbXbXbXbXbXbXwXA.A.eXbXvXbXbXbXbXBXbX-Xj.j.uXbXBXBXBXBXBXBXxX_.|.{.BXkXkXkXkXkXkXkXkXkX>X>X>X",
"iXiXtXbXbXbXbXbXbXbXbXbXjX1.-.'.bXbXbXbXbXbXbXbXwX! ! eXbXvXbXbXbXvXvXbX2Xm.n.uXbXBXBXBXBXBXBXjX.X~.@XzXkXkXkXkXkXkXkXkXkX>X>X>X",
"uXuXtXbXbXbXbXbXbXbXbXbXxX1.-.'.bXbXbXbXbXbXvXbXwX! ! eXbXvXbXbXvXvXBXbX2Xm.n.uXNXBXBXBXBXkXBXxX.XOX[.BXkXkXkXkXkXkXkXjXjX>X>X>X",
"iXpXtXbXbXbXbXbXbXbXbXfXk.%.-.'.bXbXbXbXbXbXbXwXD.L.! eXbXbXbXvXvXvXbX:Xh.C.n.uXbXBXkXBXkXBXjX`._.OX[.xXBXBXkXkXkXkXjXjXjX>X>X>X",
"pXtXtXbXbXbXbXbXbXbXjX_ n | | '.xXuXBXbXvXbX0Xl J W W 3XjXuXvXbXBXbX*X^ @.i.i.qXiXyXBXkXBXBX[ ( 5.T.{.iXtXiXkXkXkXjXjXjXjX>X>X>X",
"uXtXtXbXbXbXbXbXbXbX' b | / b ( $.b v.bXbXiXm W T T T L R J 3XbXbX>X@.i.+.4.+.4.4.O.yXNXvXv.>.Y.6.6.5.7.5.c.jXjXjXjXjXjXjX>X>X>X",
"uXtXtXbXbXbXbXbXbXv.b 3.| %.3.| 3.%./ uXbXD.W P.E L.I.W L.E A.xXjXO.m.V.u.V.i.i.V.#.x.NX-X>.oX X|.OX6.XX X7.7XBXjXjXjXjXjX>X>X>X",
"uXtXtXbXbXbXbXbXNX1.| 3.| %.2.| 3.%.V -XfXT ! L.T L.! E L.W E uXwX+.B.C.u.V.i.i.V.u.u.gX[.a.oX|.|.OX6.XX X6.[.jXjXjXjXjXjX>X>X8X",
"uXtXtXbXbXbXbXbXbX' } 3./ -.2.| 3.%.V {.BXL Q L.T L.Q E P.W E rXpX .B.m.4.V.i.i.V.u.i.yX[.>.oXS.T.OX6.XX XY..XhXjXjXjXjXjX>X>X>X",
"uXtXtXbXbXbXbXbXbX'.| 3.| 2.2./ 2.$.| b.bXS.~ I.W L.! T L.T W rXxXj.C.n.i.V.n.u.B.4.i.yX8X6.oXY. XoX6. X XY..XhXjXjXjXjXjX>X>X>X",
"tXtXtXbXbXbXbXbXbXqX%.3.3.2.2.2.3.3.| 7XbX[.~ P.L.! L.L.L.L.H.iXbXb.C.V.B.B.B.B.C.m.j.jXiX|.oXoXXXXXXXoXoXT.=XxXjXjXjXjXjX>X>X8X",
"tXtXtXbXbXbXbXbXbXkX( c ( ( c / b c v.bXbXwXJ J R J J R J J ;XbXbX<X@. .+.O. .+.@. .8XvXkXl.&.5.5.&.5.5.&.l.dXjXjXjXjXjXjX>X>X>X",
"tXtXtXbXbXbXbXbXbXbX:Xz ( ( c ( b _ jXbXvXbX).l R L J R J 5.vXBXBXxXh.^ 4.O.O.+.@.v.NXjXBXtX( &.7.` 5.5.` ,XBXjXjXjXjXjXjX>X>X>X",
"tXtXtXbXbXbXbXbXbXbXbX:Xz c c b n `.bXBXbXvXbX).l J J J m 0XbXkXBXBXkXh.^ O.@. .( iXBXkXkXBXqX( &.$.&.$.[ kXjXjXjXjXjXjXjX>X>X>X",
"tXtXtXbXbXbXbXbXbXbXbXbXtX-X*X*X:XbXbXbXvXBXbXbXeX;X}.}.eXvXBXBXBXkXBXjX,X<X*X*XtXBXkXkXkXjXBXtX;X*X*X*XiXjXhXhXjXjXiXiXjX>X>X>X",
"tXtXtXbXbXbXbXbXbXbXbXbXbXbXbXbXbXbXbXvXvXvXBXBXbXbXbXbXbXlXBXBXBXBXkXBXNXNXNXNXBXkXkXkXkXkXjXkXBXxXxXxXjXjXjXjXjXiXiXiXiX>X>X>X",
"tXtXtXbXbXbXbXbXbXbXbXbXvXBXBXBXvXbXvXvXBXBXBXBXBXBXlXlXkXBXkXkXkXkXBXkXkXkXkXkXkXkXkXkXkXkXjXjXjXjXjXjXjXjXjXjXjXjXiXiXiX>X>X>X",
"tXtXtXbXbXbXbXbXbXbXbXbXbXbXbXbXbXvXvXvXBXBXBXBXBXBXBXBXlXBXkXkXkXkXkXkXkXkXkXkXkXkXkXkXkXjXjXjXjXjXjXjXjXjXjXjXjXjXiXiXiX>X>X>X",
"tXtXtXbXbXbXbXbXbXbXbXbXbXbXbXbXvXvXvXBXBXBXBXBXBXBXBXBXBXBXkXkXkXkXkXkXkXkXkXkXkXkXkXjXjXjXjXjXjXjXjXjXjXjXhXiXjXiXiXiXiX>X>X>X",
"tXtXtXtXtXtXtXtXtXtXtXtXtXtXtXtXtXtXtXtXtXtXtXtXtXqXtXtXtXtXqXqXqXqX0X0X0X>X>X>X>X>X>X>X>X>X>X>X>X>X>X>X>X>X>X>X>X>X>X>X>X>X>X>X",
"tXtXtXtXtXtXtXtXtXtXtXtXtXtXtXtXtXtXtXtXtXtXtXtXqXqXtXtXtXtXqXqXqXqXqXqXqXqXqXqX0X0X>X>X>X>X>X>X>X>X>X>X>X>X>X>X>X>X>X>X>X>X>X>X",
"tXtXtXtXtXtXtXtXtXtXtXtXtXtXtXtXtXtXtXtXtXtXqXtXtXtXtXtXtXtXtXqXtXtXqXqXqXqXqXqXqX8X8X8X8X8XqX0X>X>X>X>X>X>X>X>X0X>X>X>X>X>X>X>X"
};
