/* XPM */
static char *af6ye_8vzxk[] = {
/* columns rows colors chars-per-pixel */
"64 64 205 2 ",
"   c #805C48",
".  c #89624E",
"X  c #8C6955",
"o  c #856B5E",
"O  c #936C56",
"+  c #956F5B",
"@  c #9D6F58",
"#  c #9C725B",
"$  c #98725A",
"%  c #A3745A",
"&  c #B47D5E",
"*  c #9C7662",
"=  c #997C6C",
"-  c #957868",
";  c #9C7F70",
":  c #A27760",
">  c #A27A63",
",  c #AB7D64",
"<  c #A47F6D",
"1  c #B07F62",
"2  c #9E806F",
"3  c #9A8476",
"4  c #9B877A",
"5  c #AF8065",
"6  c #AC826A",
"7  c #A5836D",
"8  c #B38165",
"9  c #B2856C",
"0  c #B6886F",
"q  c #BB8A6E",
"w  c #BA8669",
"e  c #A28273",
"r  c #AD8672",
"t  c #AB8875",
"y  c #A28A7D",
"u  c #AF8C7A",
"i  c #B48A73",
"p  c #BC8D72",
"a  c #B38E7A",
"s  c #B5917E",
"d  c #BD927B",
"f  c #BE9276",
"g  c #C38C6D",
"h  c #CB906E",
"j  c #C18E71",
"k  c #C49274",
"l  c #CB9575",
"z  c #C4957A",
"x  c #CA977A",
"c  c #CC9A7D",
"v  c #C6987D",
"b  c #D39876",
"n  c #D89A77",
"m  c #D29B7B",
"M  c #DB9E7B",
"N  c #E09F7A",
"B  c #DDA17E",
"V  c #E3A27C",
"C  c #A38E82",
"Z  c #A88E82",
"A  c #A6988F",
"S  c #AA988D",
"D  c #A79388",
"F  c #B39483",
"G  c #BB9682",
"H  c #BD9A85",
"J  c #B59A8C",
"K  c #BD9D8A",
"L  c #A99A91",
"P  c #A79991",
"I  c #B59E94",
"U  c #BB9F91",
"Y  c #ACA19A",
"T  c #B5A296",
"R  c #BDA496",
"E  c #B6A49C",
"W  c #BBA599",
"Q  c #B6A89E",
"!  c #BDA99D",
"~  c #B4A7A0",
"^  c #B7ADA8",
"/  c #BAAFA9",
"(  c #BCB4AE",
")  c #BAB4B1",
"_  c #C29981",
"`  c #CB9D83",
"'  c #C49E89",
"]  c #C99F89",
"[  c #D39E80",
"{  c #D89F80",
"}  c #CDA186",
"|  c #C4A18E",
" . c #CCA48C",
".. c #D4A183",
"X. c #DCA584",
"o. c #DFA886",
"O. c #D4A48A",
"+. c #D4A88D",
"@. c #DDA98B",
"#. c #C5A392",
"$. c #CDAA94",
"%. c #C3A79A",
"&. c #C5AA9B",
"*. c #CCAD9C",
"=. c #C7A995",
"-. c #D3AA93",
";. c #DAAD93",
":. c #D1AE9B",
">. c #D8B19B",
",. c #E2A683",
"<. c #E4A986",
"1. c #EAAB85",
"2. c #E4AB89",
"3. c #EBAE8A",
"4. c #F0AF89",
"5. c #EDB28E",
"6. c #F2B38D",
"7. c #E4B295",
"8. c #EEB390",
"9. c #F2B591",
"0. c #F6B994",
"q. c #F9BB95",
"w. c #F9BA96",
"e. c #C3AEA3",
"r. c #CCB4A5",
"t. c #C4B5AC",
"y. c #CCB7A9",
"u. c #CDB9AE",
"i. c #C7B0A4",
"p. c #D3B5A5",
"a. c #DAB6A0",
"s. c #D5BBAC",
"d. c #DBBCAB",
"f. c #D6B8A7",
"g. c #C5B9B3",
"h. c #CBBCB4",
"j. c #C5BEBA",
"k. c #C8BEB9",
"l. c #D2BFB3",
"z. c #DABDB0",
"x. c #E6BEA6",
"c. c #DEC1AD",
"v. c #CBC2BC",
"b. c #D4C1B4",
"n. c #DDC4B5",
"m. c #D2C4BC",
"M. c #DAC6BB",
"N. c #DDC9BD",
"B. c #E4C5B4",
"V. c #CBC5C1",
"C. c #CEC9C5",
"Z. c #CECBCA",
"A. c #C5C5C5",
"S. c #D1C7C0",
"D. c #D3CAC3",
"F. c #DBCCC3",
"G. c #D2CDCA",
"H. c #D8CFCA",
"J. c #D6D1CE",
"K. c #DBD3CD",
"L. c #DED1C6",
"P. c #D6D4D2",
"I. c #DAD5D2",
"U. c #DED9D6",
"Y. c #DDDBDA",
"T. c #E0CDC0",
"R. c #E2D4CC",
"E. c #E9D6CB",
"W. c #E1DAD4",
"Q. c #E2DEDB",
"!. c #DFE0DE",
"~. c #E5E1DE",
"^. c #E8E0DD",
"/. c #E5E4E3",
"(. c #E8E5E2",
"). c #E7E8E6",
"_. c #EAE8E6",
"`. c #EBEBEB",
"'. c #F0F0EF",
"]. c #EDEFF0",
"[. c #EEF1F2",
"{. c #F2F3F4",
"}. c #F1F6F8",
"|. c #F3F6F8",
" X c #F7FAFB",
".X c #F7FBFC",
"XX c #F6F9FA",
"oX c #FAFFFF",
"OX c #FBFFFF",
"+X c #F9FDFE",
"@X c #FDFDFD",
"#X c #FDFDFC",
"$X c #FEFDFD",
"%X c #FEFDFC",
"&X c #FEFEFD",
"*X c #FFFEFD",
"=X c #FDFFFF",
"-X c #FCFFFF",
";X c #FEFEFE",
":X c #FFFEFE",
">X c #FFFFFE",
",X c #FEFFFF",
"<X c #FFFFFF",
"1X c #FFFEFF",
"2X c #FFFFFF",
/* pixels */
"<X<X<X<X<X<X<X<X<X<X<X<X<X<X<X<X<X<X<X<X<X<X<X<X<X<X<X<X<X<X<X<X<X<X<X<X<X<X<X<X<X<X<X<X<X<X<X<X<X<X<X<X<X<X<X<X<X<X<X<X<X<X<X<X",
"<X<X<X<X<X<X<X<X<X<X<X<X<X<X<X<X<X<X<X<X<X<X<X<X<X<X<X<X<X<X<X<X<X<X<X<X<X<X<X<X<X<X<X<X<X<X<X<X<X<X<X<X<X<X<X<X<X<X<X<X<X<X<X<X",
"<X<X<X<X<X<X<X<X<X<X<X<X<X<X<X<X<X<X<X<X<X<X<X<X<X<X<X<X<X<X<X<X<X<X<X<X<X<X<X<X<X<X<X<X<X<X<X<X<X<X<X<X<X<X<X<X<X<X<X<X<X<X<X<X",
"<X<X<X<X<X<X<X<X<X<X<X<X<X<X<X<X<X<X<X<X<X<X<X<X<X<X<X<X<X<X<X<X<X<X<X<X<X<X<X<X<X<X<X<X<X<X<X<X<X<X<X<X<X<X<X<X<X<X<X<X<X<X<X<X",
"<X<X<X<X<X<X<X<X<X<X<X<X<X<X<X<X<X<X<X<X<X<X<X<X<X<X<X<X<X<X<X<X<X<X<X<X<X<X<X<X<X<X<X<X<X<X<X<X<X<X<X<X<X<X<X<X<X<X<X<X<X<X<X<X",
"<X<X<X<X<X<X<X<X<X<X<X<X<X<X<X<X<X<X<X<X<X<X<X<X<X<X<X<X<X<X<X<X<X<X<X<X<X<X<X<X<X<X<X<X<X<X<X<X<X<X<X<X<X<X<X<X<X<X<X<X<X<X<X<X",
"<X<X<X<X<X<X<X<X<X<X<X<X<X<X<X<X<X<X<X<X<X<X<X<X<X<X<X<X<X<X<X<X<X<X<X<X<X<X<X<X<X<X<X<X<X<X<X<X<X<X<X<X<X<X<X<X<X<X<X<X<X<X<X<X",
"<X<X<X<X<X<X<X<X<X<X<X<X<X<X<X<X<X<X<X<X<X<X<X<X<X<X<X<X<X<X<X<X<X<X<X<X<X<X<X<X<X<X<X<X<X<X<X<X<X<X<X<X<X<X<X<X<X<X<X<X<X<X<X<X",
"<X<X<X<X<X<X<X<X<X<X<X<X<X<X<X<X<X<X<X<X<X<X<X<X<X<X<X<X<X<X<X<X<X<X<X<X<X<Xv.D.<X<X<X<X<X<X<X<X<X<X<X<X<X<X/.e..X<X<X<X<X<X<X<X",
"<X<X<X<XW.T +X<X<X<X<X<X<X<X<X<X<X<X<X<X<X<X<X<X<X<XI.W <X<X<X<X<X<X<X<X<X{._  .+X<X<X<X<X<X<X<X<X<X<X<X<X<Xl.g Y.<X<X<X<X<X<X<X",
"<X<X<X<Xu.h v.<X<X<X<X<X<X<X<X<X<X<X<X<X<X<X<X<X<X|.H c ).<X<X<X<X<X<X<X<X`... .}.<X<X<X<X<X<X<X<X<X<X<X<X<Xy.M H.<X<X<X<X<X<X<X",
"<X<X<X<XV.B J .X<X<X<X<X<X<X<X<X<X<X<X<X<X<X<X<X<XC.b  .[.<X<X<X<X<X<X<X<XW.1.H {.<X<X<X<X<X<X<X<X<X<X<X<X<X! V n.<X<X<X<X<X<X<X",
"<X<X<X<X/.2.v `.<X<X<X<X<X|.I.<X<X`.Y.<X<X<X<X<X<Xg.N d.<X<X<X<X<X<X<X<X<X*.<.U <X<X<X<X<X<X<X<X<X<X<X<X<X<Xg.M ..`.<X<X<X<X<X<X",
"<X<X<X<X'.@.c `.<X<X%X<X).R u K.<XT G h.<X<X<X<X<Xb.M n.<X<X<X<X<X<X<X<XF.2.B D.<X<X<X<X<X<X<X<X<X<X<X<X<X<X).c 6.r.<X<X<X<X<X<X",
"<X<X<X<X`.X.O.U.&.F.<XU.} 9.t J.<XA O.2.i. X.X%.D.m.V d.<X<X<X<X<X<X<X]. .6.' }.<X<X<X<X<X<X<X<X<X<X<X<X<X<X<Xe.1.,.K.<X<X<X<X<X",
"<X<X<X<X^.3.` H 4. .D.z 3.f j.<X<X[.D ,.b *.g.V 2.s 1.a.+X<X<X<X<X<X<Xl.1.3._ =.H.<X<X<X<X<X<X<X<X<X<X<X<X).e.' X.6.$. X<X<X<X<X",
"<X<X<X<XR.<.2.5.0.i v X.+ V.<X<X<X<X XC , 8.6 X.0.2.3.;. X<X<X<X<X<X{.O.6.5.9.6.O.{.<X<X<X<X<X<X<X<X<X<X<Xp.1.6.5.9.X.U.<X<X<X<X",
"<X<X<X<XF.1.9.9.X.[ p > G.<X<X<X<X<X<X+XS , m m 5.9.6.;.{.<X<X<X<X<XW.,.9.5.5.9.` `.<X<X<X<X<X<X<X<X<X<X+X=.1.8.5.9.1.l.<X<X<X<X",
"<X<X<X<XM.1.9.5.3.q.: ) <X#X<X<X<X<X<X<X X- { 9.3.5.6.@.{.<X<X<X<X<XF.1.<.5.5.x r :.i.u.v.~.<X<X{.V.h.i.p.F q 2.9.<.1.a.<X<X<X<X",
"<X<X<X<XF.1.5.5.0.c   I <X<X<X<X<X<X<X<XQ.+ O 8.8.3.5.;.{.<X<X<X<X.X*.6.3.5.5.q.x ,.b 5.<.G _.<XW ..6.n <.k 9.8.5.3.6.+.).<X<X<X",
"<X<X<X<XL.<.2.5.9.p 2.2.{.<X<X<X<X<X<X<XN.4.z m 0.<.1.;.|.<X<X<X<XS l 0.2.5.5.m , > * k c 2 Q.<Xy d x > > > k 3.9.2.9.<.; {.<X<X",
"<X<X<X<X^.<.9.<.3.8.q.z Y.<X<X<X<X<X<X<X! <.0.5.2.2.6.a.<X<X<X<X{.< 6.9.X.5.[ O o G.I.P.Z.Z.<X<XY.V.J.P.U.4 . j 9.X.5.q.8 Z.<X<X",
"<X<X<X<X{.+.6.,.3.9...% =.+X<X<X<X<X<XQ.9 9 9.5.<.3.1.m.<X<X<X<X`.t 6.5.8.5.5.0.` [.<X<X<X<X<X<X<X<X<X<X<X=.6.8.5.5.5.0.q C.<X<X",
"<X<X<X<XG.k 0.5.8.5.p ,.p.<X<X<X<X<X<X/.@.l m 9.5.9.1.F +X<X<X<X Xs 3.5.5.5.9.9.-.{.<X<X<X<X<X<X<X<X<X<X<Xs.4.0.5.5.5.9.p Y.<X<X",
"<X<X<X<X( k 0.5.3.<.0.X./.<X<X<X<X<X<X<Xy.4.5.<.5.5.5.7 `.<X<X<X<XJ ,.9.2.3.z @ W <X<X<X<X<X<X<X<X<X<X<X<XD.+ 0 <.<.5.6.i [.<X<X",
"<X<X<X<XG., 0.5.5.8.3.s.<X<X<X<X<X<X<X<X`.O.9.3.5.9.X.4 <X<X<X<X<Xv., q.5.5.<.,.#.+X<X<X<X<X<X<X<X<X<X<X<Xu.M <.5.5.q.l S <X<X<X",
"<X<X<X<X<XC b q.0.1.G '.<X<X<X<X<X<X<X<X<Xm.l 0.0.0., C.<X<X<X<X<X<XP 0 1.3.1.` D.<X<X<X<X<X<X<X<X<X<X<X<X~.' ,.1.1.l 3 `.<X<X<X",
"<X<X<X<X<X`.= 1 i R ).<X<X<X<X<X<X<X<X<X<X<XS.s 0 % Q <X<X<X<X<X<X<X<XP.e.#.m.`.<X<X<X<X<X<X<X<X<X<X<X<X<X<X XK.%.! C..X<X<X<X<X",
"<X<X<X<X<X<X`.) P.<X<X<X<X<X<X<X<X<X<X<X<X<X<X[.j.v.<X<X<X<X<X<X<X<X<X<X<X+X<X<X<X<X<X<X<X<X<X<X<X<X<X<X<X<X<X<X+X<X<X<X<X<X<X<X",
"<X<X<X<X<X<X<X<X<X<X<X<X<X<X<X<X<X<X<X<X<X<X<X<X<X<X<X<X<X<X<X<X<X<X<X<X<X<X%X<X<X<X<X<X<X<X<X<X<X<X<X<X<X<X<X<X<X<X<X<X<X<X<X<X",
"<X<X<X<X<X<X<X<X<X<X<X<X<X<X<X<X<X<X<X<X<X<X<X<X<X<X<X<X<X<X<X<X<X<X<X<X<X<X<X<X<X<X<X<X<X<X<X<X<X<X<X<X<X<X<X<X<X<X<X<X<X<X<X<X",
"<X<X<X<X<X<X<X<X<X<X<X<X<X<X<X<X<X<X<X<X<X<X<X<X<X<X<X<X<X<X<X<X<X<X<X<X<X<X<X<X<X<X<X<X<X<X<X<X<X<X<X<X<X<X<X<X<X<X<X<X<X<X<X<X",
"<X<X<X<X<X<X<X<X<X<X<X<X<X<X<X<X<X<X<X<X<X<X<X<X<X<X<X<X<X<X<X<X<X<X<X<X<X<X<X<X<X<X<X<X<X<X<X<X<X<X<X<X<X<X<X<X<X<X<X<X<X<X<X<X",
"<X<X<X<X<X<X<X<X<X<X<X`.<X<X<X<X<X<X<X<X<X<X<X`.<X<X<X<X<X<X<X<X<X<X<X<X<X<X<X<X<X<X<X<X<X<X<X<X<X<X<X<X<X<X<X<X<X<X<X<X<X<X<X<X",
"<X<X<X<X<X<X<X<X<X<XI.= `.<X<X<X<X<X<X<X<X<XQ.= ~.<X<X<X<X<X<X<X<X<X<X<X|.C./.<X<X<X<X<X<X<X<X<X<X<X<X<X<X<X<X<X.XZ.Y.<X<X<X<X<X",
"<X<X<X<X<X<X<X<X<X<Xl.s Y.<X<X<X<X<X<X<X<X<XG.a F.<X<X<X<X<X<X<X<X<X<XG.= # - {.<X<X<X<X<X<X<X<X<X<X<X<X<X<X<X<X/ . * P  X<X<X<X",
"<X<X<X<X<X<X<X<X<X<Xd.x /.<X<X<X<X<X<X<X<X<XI.l M.<X<X<X<X<X<X<X<X<X`.* ,.0.l t. X<X<X<X<X<X<X<X<X<X<X<X<X<X<X~.s 3.9.8 ~ <X<X<X",
"<X<X<X<X<X<X<X<X<X+Xd.b Y.<X<X<X<X<X<X<X<X<XI.n n.<X<X<X<X<X<X<X<X<Xj.l q.5.9.<.] D.<X<X<X<X<X<X<X<X<X<X<X'.&...5.6.8.6.u  X<X<X",
"<X<X<X<X<X<X<X<X<X+Xd.k Y.<X<X<X<X<X<X<X<X<XG.l B.<X<X<X<X<X<X<X<X<Xe.1.5.5.5.9.9.m S.<X<X<X<X<X<X<X<X<X[.| 3.0.5.5.5.9.c /.<X<X",
"<X<X<X<X<X<X<X<X<X+X*.% Q.<X<X<X<X<X<X<X<X<XK.% f.<X<X<X<X<X<X<X<X+X:.6.8.5.3.2.2.q.[ U.<X%X<X<X<X<X<X+X*.3.9.<.3.3.5.9.X.W.<X<X",
"<X<X<X<X<X<X<X<X<X<Xx.j Y.<X<X<X<X<X<X<X<X<XJ.h B.<X<X<X<X<X<X<X<X|.-.3.2.5.X.2.3.5.6.-.{.<X<X<X<X<X<XS.<.9.5.2.<.,.5.<.<.F.<X<X",
"<X<X<X<X<X<X<X<X%XI.$.8 ^ J.{.`.<X<X<X`.'.G.Q 8 *.Y.<X<X<X<X<X<X<X{. .6.5.5.9.6.6.5.9.1.=.Y. X<X<X`.v.` 0.5.5.6.6.9.5.5.,.m.<X<X",
"<X<X<X<X<X<X<X<XF.j i 9 O ..t %.<X<X.XK a m X q 9 k K.<X<X<X<X<X<X X>.1.<.6.3.5.6.5.p 3.6.z T <XI.u o.q.l c 9.5.5.3.5.X.<.R.<X<X",
"<X<X<X<XP.( U.<Xa.6....., 0.w O.`.<X/...q 0.: o...6.s.<XJ.) Y.<X<X<Xn.n c 5.l 5.2.3.t.J M 6.z {.u.V 5.j / ;.5.3.X.m 5.k <.).<X<X",
"<X<X<XU.k l 6 Z.c.3.@.<.p 9.p ..W.<XR.M k 9.q 3.X.1.n.V.6 b d /.<X<XL.b x 8., 3.X.3.R.{.D Z k.<X(.I y v.+X;.3.<.x p 8.p ;.{.<X<X",
"<X<X<XW.k 9.q.z G 9.5.5.X.9.m <.T.<Xn.,.[ 8.X.5.5.6.s z q.6.z ~.<X<X(.p q <.X [ j M I.<X<X<X<X<X<X<X<X<X+X:.b x 6 5 <., p.<X<X<X",
"<X<X<X<XA.%.X.6.,.5.5.5.9.5.5.1.f.<X:.4.5.5.9.5.5.5.X.6...! Z.<X<X<X.Xv.D.J 3 , J g.#X<X<X<X<X<X<X<X<X<X<XQ.T i * C u.v.Q.<X<X<X",
"<X<X<X<X<X<Xh.<.9.5.5.5.<.5.<.1.r.<X*.3.<.5.<.5.5.5.0.<.m.<X<X<X<X<X<X<X<X<Xt.n E.<X<X<X<X<X<X<X<X<X<X<X<X<X X7.d `.<X<X<X<X<X<X",
"<X<X<X<X<X<X+X*.4.6.<.<.X.6.5.1.b.<Xf.3.5.5.X.<.,.9.3.r.<X<X<X<X<X<X<X<X#X<Xg.& F.<X<X<X<X<X<X<X<X<X<X<X<X<X{.` r {.<X<X<X<X<X<X",
"<X<X<X<X<X<X<X`.] 6.9.5.9.5.9.X.m.<Xh.,.9.5.9.5.9.6.| {.<X<X<X<X<X<X<X<X<X<Xg.w F.<X<X<X<X<X<X<X<X<X<X<X<X<X|. .i {.<X<X<X<X<X<X",
"<X<X<X<X<X<X<X<X~.' ,.9.5.5.0.k I.<XC.x 0.5.6.6.,.#.`.<X<X<X<X<X<X<X<X<X<X<Xh.M R.<X<X<X<X<X<X<X<X<X<X<X<X<X|.7.` [.<X<X<X<X<X<X",
"<X<X<X<X<X<X<X<X<X[.m.] 6.q.1.e |.<X`.> 5.q.3.' S.{.<X<X<X<X<X<X<X<X<X<X<X<Xm.n R.<X<X<X<X<X<X<X<X<X<X<X<X<X X;.} [.<X<X<X<X<X<X",
"<X<X<X<X<X<X<X<X<X<X<X( % j $ v.<X.X<X( # j @ V.<X<X<X<X<X<X<X<X<X<X<X<X<X<Xh.v W.<X<X<X<X<X<X<X<X<X<X<X<X<X.X*.K [.<X<X<X<X<X<X",
"<X<X<X<X<X<X<X<X<X<X<X|.P P Y.<X<X<X<X<XI.D Y .X<X<X<X<X<X<X<X<X<X<X<X<X<X<Xg.< (.<X<X<X<X<X<X<X<X<X<X<X<X<X<Xe.e {.<X<X<X<X<X<X",
"<X<X<X<X<X<X<X<X<X<X<X<X<X<X<X<X<X<X<X<X<X<X<X<X<X<X<X<X<X<X<X<X<X<X<X<X<X<X`.v.<X<X<X<X<X<X<X<X<X<X<X<X<X<X<X~.V.<X<X<X<X<X<X<X",
"<X<X<X<X<X<X<X<X<X<X<X<X<X<X<X<X<X<X<X<X<X<X<X<X<X<X<X<X<X<X<X<X<X<X<X<X<X<X<X<X<X<X<X<X<X<X<X<X<X<X<X<X<X<X<X<X<X<X<X<X<X<X<X<X",
"<X<X<X<X<X<X<X<X<X<X<X<X<X<X<X<X<X<X<X<X<X<X<X<X<X<X<X<X<X<X<X<X<X<X<X<X<X<X<X<X<X<X<X<X<X<X<X<X<X<X<X<X<X<X<X<X<X<X<X<X<X<X<X<X",
"<X<X<X<X<X<X<X<X<X<X<X<X<X<X<X<X<X<X<X<X<X<X<X<X<X<X<X<X<X<X<X<X<X<X<X<X<X<X<X<X<X<X<X<X<X<X<X<X<X<X<X<X<X<X<X<X<X<X<X<X<X<X<X<X",
"<X<X<X<X<X<X<X<X<X<X<X<X<X<X<X<X<X<X<X<X<X<X<X<X<X<X<X<X<X<X<X<X<X<X<X<X<X<X<X<X<X<X<X<X<X<X<X<X<X<X<X<X<X<X<X<X<X<X<X<X<X<X<X<X",
"<X<X<X<X<X<X<X<X<X<X<X<X<X<X<X<X<X<X<X<X<X<X<X<X<X<X<X<X<X<X<X<X<X<X<X<X<X<X<X<X<X<X<X<X<X<X<X<X<X<X<X<X<X<X<X<X<X<X<X<X<X<X<X<X",
"<X<X<X<X<X<X<X<X<X<X<X<X<X<X<X<X<X<X<X<X<X<X<X<X<X<X<X<X<X<X<X<X<X<X<X<X<X<X<X<X<X<X<X<X<X<X<X<X<X<X<X<X<X<X<X<X<X<X<X<X<X<X<X<X",
"<X<X<X<X<X<X<X<X<X<X<X<X<X<X<X<X<X<X<X<X<X<X<X<X<X<X<X<X<X<X<X<X<X<X<X<X<X<X<X<X<X<X<X<X<X<X<X<X<X<X<X<X<X<X<X<X<X<X<X<X<X<X<X<X",
"<X<X<X<X<X<X<X<X<X<X<X<X<X<X<X<X<X<X<X<X<X<X<X<X<X<X<X<X<X<X<X<X<X<X<X<X<X<X<X<X<X<X<X<X<X<X<X<X<X<X<X<X<X<X<X<X<X<X<X<X<X<X<X<X",
"<X<X<X<X<X<X<X<X<X<X<X<X<X<X<X<X<X<X<X<X<X<X<X<X<X<X<X<X<X<X<X<X<X<X<X<X<X<X<X<X<X<X<X<X<X<X<X<X<X<X<X<X<X<X<X<X<X<X<X<X<X<X<X<X"
};
