/* XPM */
static char *algj8_kjyvy[] = {
/* columns rows colors chars-per-pixel */
"64 64 192 2 ",
"   c #383227",
".  c #3B3937",
"X  c #493E2C",
"o  c #4C402D",
"O  c #4B4335",
"+  c #4E4738",
"@  c #5F543D",
"#  c #5A5446",
"$  c #54524D",
"%  c #5C574B",
"&  c #525354",
"*  c #5B5954",
"=  c #5C5C5C",
"-  c #665B44",
";  c #6E634B",
":  c #74654C",
">  c #7F704F",
",  c #6D6657",
"<  c #63615E",
"1  c #6B655B",
"2  c #7B6D52",
"3  c #766E5A",
"4  c #7E7156",
"5  c #7E735C",
"6  c #6E6C69",
"7  c #736E69",
"8  c #7E7661",
"9  c #767268",
"0  c #6F6F70",
"q  c #737374",
"w  c #7B7970",
"e  c #7D7C7B",
"r  c #837255",
"t  c #877659",
"y  c #87795E",
"u  c #8A7858",
"i  c #8C7B5D",
"p  c #847B66",
"a  c #8D7D61",
"s  c #817E74",
"d  c #8D8266",
"f  c #8A826E",
"g  c #958362",
"h  c #978866",
"j  c #9B8A65",
"k  c #94896D",
"l  c #858174",
"z  c #86827A",
"x  c #8A867B",
"c  c #8F897B",
"v  c #978D74",
"b  c #958E7D",
"n  c #A08D68",
"m  c #AE9463",
"M  c #A4926D",
"N  c #A9956B",
"B  c #B29C6E",
"V  c #A59372",
"C  c #AD9A73",
"Z  c #AA9B79",
"A  c #B29F75",
"S  c #B89F75",
"D  c #B29F7B",
"F  c #B3A177",
"G  c #BAA576",
"H  c #B3A37B",
"J  c #B9A67C",
"K  c #BAA87E",
"L  c #C2AC7D",
"P  c #CAAE7A",
"I  c #C5B07F",
"U  c #818182",
"Y  c #8B8882",
"T  c #878788",
"R  c #8C8B8B",
"E  c #928F87",
"W  c #979488",
"Q  c #979591",
"!  c #989797",
"~  c #9B9993",
"^  c #979798",
"/  c #9A9A9A",
"(  c #A29B83",
")  c #A39E92",
"_  c #A09F9D",
"`  c #AEA181",
"'  c #ABA38C",
"]  c #B6A680",
"[  c #BCAB84",
"{  c #B1A78C",
"}  c #B5AA8A",
"|  c #BDB08A",
" . c #AFA993",
".. c #A4A19C",
"X. c #AEA99D",
"o. c #B4AC94",
"O. c #B9AF93",
"+. c #B3AC9B",
"@. c #BEB394",
"#. c #B7B098",
"$. c #BFB79F",
"%. c #9F9FA0",
"&. c #A4A3A3",
"*. c #A9A7A3",
"=. c #AAA9A7",
"-. c #ACACAB",
";. c #B1AEA7",
":. c #B0AEAC",
">. c #AFAFB0",
",. c #B3B3B3",
"<. c #B7B8BA",
"1. c #BCBCBC",
"2. c #C0AD84",
"3. c #C6B083",
"4. c #CAB485",
"5. c #CEB886",
"6. c #C5B389",
"7. c #CCB68A",
"8. c #CEB98A",
"9. c #D3B786",
"0. c #D4B985",
"q. c #DABC86",
"w. c #D3BC8B",
"e. c #DABE8A",
"r. c #C3B692",
"t. c #C6B995",
"y. c #CCBC93",
"u. c #C1B89C",
"i. c #CBBE99",
"p. c #D3BE91",
"a. c #D6C08E",
"s. c #DCC28D",
"d. c #D6C293",
"f. c #DCC592",
"g. c #D3C49C",
"h. c #DAC599",
"j. c #DDC99B",
"k. c #E4C38D",
"l. c #E8C58F",
"z. c #E3C692",
"x. c #E8C790",
"c. c #E4CB94",
"v. c #ECCC95",
"b. c #E4CD99",
"n. c #E9CE9A",
"m. c #F0CF96",
"M. c #F0CF98",
"N. c #ECD196",
"B. c #E6D09A",
"V. c #ECD29A",
"C. c #F1D097",
"Z. c #F2D49B",
"A. c #F4D99E",
"S. c #F8D99F",
"D. c #D4C8A3",
"F. c #DBCCA1",
"G. c #D1C7AF",
"H. c #C7C4BA",
"J. c #E4CEA1",
"K. c #E4D1A3",
"L. c #ECD5A3",
"P. c #ECD7A6",
"I. c #ECD9AA",
"U. c #F2D6A1",
"Y. c #F4DAA3",
"T. c #F9DDA4",
"R. c #F2DBAA",
"E. c #F8DFA8",
"W. c #E1D5B0",
"Q. c #FBE0A6",
"!. c #F6E0AC",
"~. c #FBE2A9",
"^. c #FDE9B4",
"/. c #BFC0C0",
"(. c #C4C4C5",
"). c #C7C8C8",
"_. c #CCCCCB",
"`. c #D4D3CC",
"'. c #D4D3D4",
"]. c #DDDDDE",
"[. c #E1E0DC",
"{. c #DEDFE0",
"}. c #E3E4E4",
"|. c #ECECEC",
" X c #EFEFF0",
".X c #EFF1F1",
"XX c #F2F2F2",
"oX c #F5F5F6",
"OX c #F7F7F7",
"+X c #F8F8F8",
"@X c #F8F8F9",
"#X c #FBFBFB",
/* pixels */
"OXOXOXOXOXOXOXOXOXOXOXOXOXOXOXOXOXOXOXOXOXOXOXOXOXOXOXOXOXOXOXOXOXOXOXOXOXOXOXOXOXOXOXOXOXOXOXOXOXOXOXOXOXOXOXOXOXOXOXOXOXOXOXOX",
"OXOXOXOXOXOXOXOXOXOXOXOXOXOXOXOXOXOXOXOXOXOXOXOXOXOXOXOXOXOXOXOXOXOXOXOXOXOXOXOXOXOXOXOXOXOXOXOXOXOXOXOXOXOXOXOXOXOXOXOXOXOXOXOX",
"OXOXOXOXOXOXOXOXOXOXOXOXOXOXOXOXOXOXOXOXOXOXOXOXOXOXOXOXOXOXOXOXOXOXOXOXOXOXOXOXOXOXOXOXOXOXOXOXOXOXOXOXOXOXOXOXOXOXOXOXOXOXOXOX",
"OXOXOXOXOXOXOXOXOXOXOXOXOXOXOXOX@X@XOXOXOXOXOXOXOXOXOXOXOXOXOXOXOXOXOXOXOXOXOXOXOXOXOXOXOXOX@X@XOXOXOXOXOXOXOXOXOXOXOXOXOXOXOXOX",
"OXOXOXOXOXOXOXOXOXOXOXOXOXOXOX@X}.].XX@XOXOXOXOXOXOXOXOXOXOXOXOXOXOXOXOXOXOXOXOXOXOXOXOX@XXX].}.@XOXOXOXOXOXOXOXOXOXOXOXOXOXOXOX",
"OXOXOXOXOXOXOXOXOXOXOXOXOXOX@X).= & T |.@XOXOXOXOXOXOXOXOXOXOXOXOXOXOXOXOXOXOXOXOXOXOX@X|.T & = ).@XOXOXOXOXOXOXOXOXOXOXOXOXOXOX",
"OXOXOXOXOXOXOXOXOXOXOXOXOX@XXXe <.{.0 ,.@XOXOXOXOXOXOXOXOXOXOXOXOXOXOXOXOXOXOXOXOXOXOX@X,.0 {.<.e XXOXOXOXOXOXOXOXOXOXOXOXOXOXOX",
"OXOXOXOXOXOXOXOXOXOXOXOXOX@X_.q OX@X=.0 OXOXOXOXOXOXOXOXOXOXOXOXOXOXOXOXOXOXOXOXOXOXOXOX0 =.@XOXq _.@XOXOXOXOXOXOXOXOXOXOXOXOXOX",
"OXOXOXOXOXOXOXOXOXOXOXOXOX@X-.q OXOX/.& |.@XOXOXOXOXOXOXOXOXOXOXOXOXOXOXOXOXOXOXOXOXOX|.& /.OXOXq -.@XOXOXOXOXOXOXOXOXOXOXOXOXOX",
"OXOXOXOXOXOXOXOXOXOXOXOXOX@XR 0 XX.X`.x }.@XOXOXOXOXOXOXOXOXOXOXOXOXOXOXOXOXOXOXOXOX@X}.x '..XXX0 R @XOXOXOXOXOXOXOXOXOXOXOXOXOX",
"OXOXOXOXOXOXOXOXOXOXOXOXOX@XQ ) _.`.G. .}.@XOXOXOXOXOXOXOXOXOXOXOXOXOXOXOXOXOXOXOXOX@X}. .G.`._.) Q @XOXOXOXOXOXOXOXOXOXOXOXOXOX",
"OXOXOXOXOXOXOXOXOXOXOXOXOXOXQ D.@.} F.$.}.@XOXOXOXOXOXOXOXOXOXOXOXOXOXOXOXOXOXOXOXOX@X}.$.F.} r.D.Q OXOXOXOXOXOXOXOXOXOXOXOXOXOX",
"OXOXOXOXOXOXOXOXOXOXOXOXOXOXE K.Y.Y.~.u.}.@XOXOXOXOXOXOXOXOXOXOXOXOXOXOXOXOXOXOXOXOX@X}.$.~.Y.Y.K.E OXOXOXOXOXOXOXOXOXOXOXOXOXOX",
"OXOXOXOXOXOXOXOXOXOXOXOXOXXXY K.Z.Z.Q.$.}.@XOXOXOXOXOXOXOXOXOXOXOXOXOXOXOXOXOXOXOXOX@X}.u.Q.Z.Z.K.Y XXOXOXOXOXOXOXOXOXOXOXOXOXOX",
"OXOXOXOXOXOXOXOXOXOXOXOXOXXXY K.Z.C.Q.O.}.@XOXOXOXOXOXOXOXOXOXOXOXOXOXOXOXOXOXOXOXOX@X}.#.Q.C.Z.K.Y XXOXOXOXOXOXOXOXOXOXOXOXOXOX",
"OXOXOXOXOXOXOXOXOXOXOXOXOX Xz P.Z.C.Q.o.}.@XOXOXOXOXOXOXOXOXOXOXOXOXOXOXOXOXOXOXOXOX@X}.o.Q.C.Z.P.z  XOXOXOXOXOXOXOXOXOXOXOXOXOX",
"OXOXOXOXOXOXOXOXOXOXOXOX@X|.z P.Z.C.~.' ].@XOXOXOXOXOXOXOXOXOXOXOXOXOXOXOXOXOXOXOXOX@X].' Q.C.Z.P.z |.OXOXOXOXOXOXOXOXOXOXOXOXOX",
"OXOXOXOXOXOXOXOXOXOXOXOX@X|.z P.Z.C.~.' ].@XOXOXOXOXOXOXOXOXOXOXOXOXOXOXOXOXOXOXOXOX@X].' ~.Z.Z.P.z |.OXOXOXOXOXOXOXOXOXOXOXOXOX",
"OXOXOXOXOXOXOXOXOXOXOXOX@X|.l I.Z.Z.~. .].@XOXOXOXOXOXOXOXOXOXOXOXOXOXOXOXOXOXOXOXOX@X]. .~.Z.Z.I.l |.@XOXOXOXOXOXOXOXOXOXOXOXOX",
"OXOXOXOXOXOXOXOXOXOXOXOX@X|.x R.Z.Z.~.o.].@XOXOXOXOXOXOXOXOXOXOXOXOXOXOXOXOXOXOXOXOX@X].o.~.Z.Z.R.x |.@XOXOXOXOXOXOXOXOXOXOXOXOX",
"OXOXOXOXOXOXOXOXOXOXOXOX@X}.x R.Z.C.Q.@.'.@XOXOXOXOXOXOXOXOXOXOXOXOXOXOXOXOXOXOXOXOX@X'.@.Q.C.Z.R.x }.@XOXOXOXOXOXOXOXOXOXOXOXOX",
"OXOXOXOXOXOXOXOX@X@X@X@X@X}.c R.v.v.T.u._.@XOXOXOXOXOXOXOXOXOXOXOXOXOXOXOXOXOXOXOXOX@X_.u.T.v.v.R.c }.@X@X@X@X@XOXOXOXOXOXOXOXOX",
"OXOXOXOXOXOXOX@X|.1.,.|.@X}.b L.s.q.Z.i._.@XOXOXOXOXOXOXOXOXOXOXOXOXOXOXOXOXOXOXOXOX@X_.i.Z.q.s.L.b }.@X|.,.1.|.@XOXOXOXOXOXOXOX",
"OXOXOXOXOXOXOX@X%.* l R OX].b a.B P N.i._.@XOXOXOXOXOXOXOXOXOXOXOXOXOXOXOXOXOXOXOXOX@X).i.N.P B a.b ].OXR l * %.@XOXOXOXOXOXOXOX",
"OXOXOXOXOXOX@X}./ ;.W.9 '.].b I.L.L.A.i.).@XOXOXOXOXOXOXOXOXOXOXOXOXOXOXOXOXOXOXOXOX@X).i.A.L.L.I.b ].'.9 W.;./ }.@XOXOXOXOXOXOX",
"OXOXOXOXOXOX@X>.).[.D.v = R f B.9.0.c.y.,.XX@XOXOXOXOXOXOXOXOXOXOXOXOXOXOXOXOXOXOX@XXX,.y.c.0.9.B.f R = v D.[.).>.@XOXOXOXOXOXOX",
"OXOXOXOXOX@X}.e |.|.O.3 8 , 8 P.3.9.Y.t.. < 1.@X@X@XOXOXOXOXOXOXOXOXOXOXOXOX@X@X@X1.< . t.Y.9.3.P.8 , 8 3 O.|.|.e }.@XOXOXOXOXOX",
"OXOXOXOXOX@X&.q @X}.% ` ^.r.p !.Y.Y.Q.| % r.l ,.).].@XOXOXOXOXOXOXOXOXOXOX@X].).,.l r.% | Q.Y.Y.!.p r.^.` % }.@Xq &.@XOXOXOXOXOX",
"OXOXOXOX@X|.s ;.@X,.# I.~.6.y R.V.N.Y.] 4 ^.F.$ l w ,.OXOXOXOXOXOXOXOXOXOX,.w l $ F.^.4 ] Y.N.V.R.y 6.~.I.# ,.@X;.s |.@XOXOXOXOX",
"OXOXOXOX@X,.{ G.}.= v ~.T.6.a Y.v.v.A.H r Q.!.d K.I.s _.@XOXOXOXOXOXOX@X_.s I.K.d !.Q.r H A.v.v.Y.a 6.T.~.v = }.G.{ ,.@XOXOXOXOX",
"OXOXOXOX|.E I.g. .# y.Y.A.7.a Y.v.v.A.H t T.~.V F Q.g.Q OXOXOXOXOXOXOXOXQ g.Q.F V ~.T.t H A.v.v.Y.a 7.A.Y.y.#  .g.I.E |.@XOXOXOX",
"OXOXOX@X(.' ~.L.K.a J.Z.Z.8.a Y.v.v.Y.] i T.T.y.i V.R.W }.@XOXOXOXOXOX}.W R.V.i y.Q.T.a ] Y.v.v.Y.a 8.Z.Z.J.a K.L.~.' (.@XOXOXOX",
"OXOXOX@X..g.Y.N.f.a P.C.Z.w.i U.v.v.Y.[ i T.S.P.4 f.Y.' '.@XOXOXOXOX@X'.' Y.f.4 P.S.T.i [ Y.v.v.U.i w.Z.C.P.a f.B.Y.g...@XOXOXOX",
"OXOXOXOX..K.V.n.8.h Y.v.C.w.i U.v.v.A.2.t Y.Z.E.d 3.A.r.1.@XOXOXOXOX@X1.@.A.3.d ~.Z.Y.t 2.A.v.v.U.i w.C.m.Y.h 8.n.V.J...OXOXOXOX",
"OXOXOXOXX.K.n.b.3.V Y.v.C.9.y U.v.v.Z.7.2 Z.C.T.Z A A.g.=.@XOXOXOXOX@X=.g.A.A Z T.C.Z.2 7.A.v.v.U.y 9.C.v.Y.V 6.b.n.K.X.OXOXOXOX",
"OXOXOXOXX.K.c.b.K Z U.v.v.4.t U.v.v.Z.d.: V.m.A.7.n V.K.~ OXOXOXOXOXOX~ K.V.n 7.A.m.V.: d.Z.v.v.U.t 4.v.v.U.Z K b.c.K.X.OXOXOXOX",
"OXOXOXXXX.L.c.b.F D U.x.v.L i U.v.v.Z.b.: c.v.Z.j.j B.P.W |.OXOXOXOX|.W P.N.j j.Z.v.z.: b.Z.v.v.U.i L v.x.Z.D A b.c.L.X.XXOXOXOX",
"OXOXOX|.+.P.c.b.C [ Z.x.N.A V U.v.v.C.L.: e.m.C.L.h z.Y.W {.@XOXOX@X{.W Y.z.h L.C.m.e.: L.C.v.v.U.V S N.x.Z.[ C c.c.L.+.|.OXOXOX",
"OXOX@X].O.L.z.c.N 7.C.x.v.N 6.Z.v.v.m.Y.2 5.m.m.R.M s.Y.( _.@XOXOX@X_.( Y.s.M R.m.m.4.2 Y.m.v.v.Z.6.N v.x.V.7.N c.z.L.O.].@XOXOX",
"OXOX@XH.t.V.f.f.M h.v.x.v.j p.v.x.v.m.Y.r 3.M.v.Y.V w.A.} /.@XOXOX@X(.} A.w.V Y.v.M.3.r Y.m.v.x.v.p.j n.x.v.h.M f.s.V.t.H.@XOXOX",
"OXOX@X-.h.c.w.5.N L.x.x.n.g p.v.l.x.v.Z.t 5.M.v.Y.M 4.A.r.,.@XOXOX@X,.r.A.4.M Y.v.M.5.t Z.v.x.l.v.f.g n.x.x.V.N 5.w.c.h.-.@XOXOX",
"OXOX@X*.d.z.5.N V U.x.x.n.n w.x.l.l.x.V.g f.v.v.A.g L Z.y.&.@XOXOX@X&.y.Z.L g A.v.v.f.g V.v.l.l.x.w.n n.x.x.U.V N 5.z.d.*.@XOXOX",
"OXOX@X:.H f.f.[ 6.V.l.l.n.L w.x.l.l.x.z.S n.v.x.Z.2 J V.y._ @XOXOX@X_ y.V.J 2 V.x.v.n.F z.x.l.l.x.w.L n.x.x.V.6.[ f.s.H :.@XOXOX",
"OXOX@X'., 4.f.L p.n.k.k.z.f.z.x.k.l.v.n.f.n.x.x.b.- 3.V.y.&.@XOXOX@X&.y.V.3.- b.x.x.n.f.n.v.l.k.x.f.f.z.k.k.n.w.L f.4., '.@XOXOX",
"OXOXOXOXU 2 f.G w.z.e.e.k.c.z.k.e.k.x.n.c.z.k.v.5.; a.N.[ =.@XOXOX@X=.[ N.a.; 5.x.l.z.c.n.x.k.e.k.z.c.s.e.e.z.w.G f.2 U OXOXOXOX",
"OXOXOX@X].* K I w.s.q.e.e.f.f.e.e.e.k.k.s.e.q.k.j j s.z.k ).@XOXOX@X).k z.s.j j l.q.e.s.k.k.q.e.e.f.f.e.e.q.s.w.I K * ].@XOXOXOX",
"OXOXOXOX@X-.5 d.w.w.9.w.e.s.e.e.0.q.q.s.e.0.P m h 8.9.N z XXOXOXOX@XXXx N 9.8.h m P 0.e.s.q.q.0.e.s.s.e.w.9.w.w.d.5 -.@XOXOXOXOX",
"OXOXOXOX@X|.6 6.w.5.9.9.w.e.e.w.9.0.0.e.e.e.r r j.b.7.% (.@XOXOXOXOX@X(.% 7.b.j.r r e.e.e.0.9.9.w.e.e.w.9.9.5.w.6.6 |.@XOXOXOXOX",
"OXOXOXOXOX@X! k p.5.5.9.w.w.w.w.w.0.w.e.s.L y j.B.V.K.s |.OXOXOXOXOX@X|.s K.V.B.j.y L s.e.w.0.w.w.w.w.w.9.8.5.p.k ! @XOXOXOXOXOX",
"OXOXOXOXOX@X'.% K 7.8.w.w.w.w.9.9.w.w.s.f.H d.b.k.N.H R @XOXOXOXOXOXOX@XR H N.k.b.d.F f.s.w.9.9.9.w.w.w.w.8.8.K % '.@XOXOXOXOXOX",
"OXOXOXOXOXOXOXU O H 8.w.w.w.w.9.9.9.w.f.a.p.b.s.s.z.5 (.@XOXOXOXOXOXOX@X(.5 z.s.s.b.p.a.s.w.9.9.w.w.w.w.w.8.H O U OXOXOXOXOXOXOX",
"OXOXOXOXOXOX@X].$ ; F w.w.w.w.9.9.9.w.f.f.j.s.s.s.J e XXOXOXOXOXOXOXOXOXXXe J s.s.s.j.f.f.w.9.9.w.w.w.w.w.F ; $ ].@XOXOXOXOXOXOX",
"OXOXOXOXOXOXOX@X;.} h 9.w.w.9.8.8.9.9.s.f.f.s.w.w.3 ).@XOXOXOXOXOXOXOXOX@X).3 w.w.s.f.f.s.9.9.8.8.8.w.w.w.h } ;.@XOXOXOXOXOXOXOX",
"OXOXOXOXOXOXOX@X'.` p.w.w.9.8.8.8.8.8.w.w.w.9.w.h R OXOXOXOXOXOXOXOXOXOXOXOXR h w.9.w.w.w.9.8.8.8.8.9.w.w.p.` '.@XOXOXOXOXOXOXOX",
"OXOXOXOXOXOXOXOXOX) K w.8.5.8.8.8.8.8.5.5.5.5.C 1 }.@XOXOXOXOXOXOXOXOXOXOX@X}.1 C 5.5.5.5.8.8.5.8.8.5.8.w.K ) OXOXOXOXOXOXOXOXOX",
"OXOXOXOXOXOXOXOX@X{.p C 3.3.4.5.4.4.4.4.4.4.F # 1.@XOXOXOXOXOXOXOXOXOXOXOXOX@X1.# F 4.4.4.4.4.4.5.4.3.3.C p {.@XOXOXOXOXOXOXOXOX",
"OXOXOXOXOXOXOXOXOX@X_.1 i G L L L L L L L N + / @XOXOXOXOXOXOXOXOXOXOXOXOXOXOX@X/ + N L L L L L L L G i 1 _.@XOXOXOXOXOXOXOXOXOX",
"OXOXOXOXOXOXOXOXOXOX@X'.7 @ u N B B B N >   R OX@XOXOXOXOXOXOXOXOXOXOXOXOXOXOX@XOXR   > N B B B N u @ 7 '.@XOXOXOXOXOXOXOXOXOXOX",
"OXOXOXOXOXOXOXOXOXOXOX@X|.-.< O o o X   . ^ XX@XOXOXOXOXOXOXOXOXOXOXOXOXOXOXOXOX@XXX^ .   X o o O < -.|.@XOXOXOXOXOXOXOXOXOXOXOX",
"OXOXOXOXOXOXOXOXOXOXOXOX@X@XXX'.>.&.-.1.].@X@XOXOXOXOXOXOXOXOXOXOXOXOXOXOXOXOXOXOXOX@X].1.-.&.>.'.XX@X@XOXOXOXOXOXOXOXOXOXOXOXOX",
"OXOXOXOXOXOXOXOXOXOXOXOXOXOXOX@X@X@X@X@X@XOXOXOXOXOXOXOXOXOXOXOXOXOXOXOXOXOXOXOXOXOXOX@X@X@X@X@X@XOXOXOXOXOXOXOXOXOXOXOXOXOXOXOX",
"OXOXOXOXOXOXOXOXOXOXOXOXOXOXOXOXOXOXOXOXOXOXOXOXOXOXOXOXOXOXOXOXOXOXOXOXOXOXOXOXOXOXOXOXOXOXOXOXOXOXOXOXOXOXOXOXOXOXOXOXOXOXOXOX",
"OXOXOXOXOXOXOXOXOXOXOXOXOXOXOXOXOXOXOXOXOXOXOXOXOXOXOXOXOXOXOXOXOXOXOXOXOXOXOXOXOXOXOXOXOXOXOXOXOXOXOXOXOXOXOXOXOXOXOXOXOXOXOXOX",
"OXOXOXOXOXOXOXOXOXOXOXOXOXOXOXOXOXOXOXOXOXOXOXOXOXOXOXOXOXOXOXOXOXOXOXOXOXOXOXOXOXOXOXOXOXOXOXOXOXOXOXOXOXOXOXOXOXOXOXOXOXOXOXOX"
};
