/* XPM */
static char *amz8f_xnomc[] = {
/* columns rows colors chars-per-pixel */
"64 64 254 2 ",
"   c #18002C",
".  c #1A0035",
"X  c #2A0138",
"o  c #5A013A",
"O  c #460032",
"+  c #63033D",
"@  c #6B073D",
"#  c #750E3E",
"$  c #1A004A",
"%  c #240149",
"&  c #260059",
"*  c #330157",
"=  c #280179",
"-  c #2B006A",
";  c #1D0067",
":  c #5C0148",
">  c #460143",
",  c #6C0C43",
"<  c #64054B",
"1  c #6B0C4C",
"2  c #660745",
"3  c #730C44",
"4  c #741244",
"5  c #7D1944",
"6  c #73134B",
"7  c #7C1A4C",
"8  c #791646",
"9  c #6C0A53",
"0  c #741453",
"q  c #7C1B53",
"w  c #7D1B5B",
"e  c #761558",
"r  c #6F104E",
"t  c #4A0070",
"y  c #71006C",
"u  c #79215D",
"i  c #910034",
"p  c #B7003E",
"a  c #D30131",
"s  c #E9043E",
"d  c #821E4C",
"f  c #831D44",
"g  c #811E59",
"h  c #930248",
"j  c #AA0851",
"k  c #8B234C",
"l  c #8A2145",
"z  c #9C2D4C",
"x  c #952948",
"c  c #85215C",
"v  c #8B255C",
"b  c #892354",
"n  c #932A5B",
"m  c #982C56",
"M  c #9E3057",
"N  c #AB3C4D",
"B  c #A5354A",
"V  c #A43254",
"C  c #A9355A",
"Z  c #B33C5C",
"A  c #B63D56",
"S  c #851867",
"D  c #AE0075",
"F  c #8A2466",
"G  c #932A64",
"H  c #942A6B",
"J  c #9B2E6B",
"K  c #992D65",
"L  c #9F3068",
"P  c #952A73",
"I  c #9B2D74",
"U  c #9C2D78",
"Y  c #932971",
"T  c #A4336B",
"R  c #A93766",
"E  c #B53D67",
"W  c #A43373",
"Q  c #AA3674",
"!  c #AD3975",
"~  c #A5327A",
"^  c #AA367B",
"/  c #AD397B",
"(  c #B33C74",
")  c #B33C7B",
"_  c #B83D77",
"`  c #AD296D",
"'  c #CD0853",
"]  c #F2014F",
"[  c #D30B6B",
"{  c #FC0074",
"}  c #EF1070",
"|  c #D6246C",
" . c #F72979",
".. c #AD414D",
"X. c #B5464E",
"o. c #B44452",
"O. c #BC4B54",
"+. c #BC425B",
"@. c #BA4857",
"#. c #B74854",
"$. c #BC436B",
"%. c #BB4165",
"&. c #BB4274",
"*. c #BC427D",
"=. c #B7427A",
"-. c #C24B59",
";. c #C55154",
":. c #CB5554",
">. c #C5525B",
",. c #CB565B",
"<. c #CE5959",
"1. c #D45B55",
"2. c #D35C5C",
"3. c #D85D58",
"4. c #C24E4F",
"5. c #DC6256",
"6. c #DC625B",
"7. c #D7605C",
"8. c #E1665B",
"9. c #E56A5B",
"0. c #EA6E5A",
"q. c #E36857",
"w. c #ED725C",
"e. c #F1765D",
"r. c #F47A5E",
"t. c #C34563",
"y. c #CB4C64",
"u. c #C74A6A",
"i. c #CB5462",
"p. c #CD5964",
"a. c #D45D64",
"s. c #D5576A",
"d. c #C2467D",
"f. c #C5497C",
"g. c #CB4C7D",
"h. c #C64974",
"j. c #CE5079",
"k. c #DC5B73",
"l. c #D4537C",
"z. c #DC5A7C",
"x. c #D65677",
"c. c #D14E71",
"v. c #E15E7B",
"b. c #DB6363",
"n. c #DC646B",
"m. c #D96569",
"M. c #DC6572",
"N. c #E46B63",
"B. c #E46B6C",
"V. c #E86D65",
"C. c #ED7363",
"Z. c #EC746B",
"A. c #E67069",
"S. c #F57C63",
"D. c #F47B6C",
"F. c #F47A66",
"G. c #E46C73",
"H. c #E5637B",
"J. c #E56979",
"K. c #EC7372",
"L. c #E9747C",
"P. c #F37B72",
"I. c #F67676",
"U. c #FD6B7C",
"Y. c #FC885D",
"T. c #FD915F",
"R. c #FA8265",
"E. c #FB846B",
"W. c #FD8A6D",
"Q. c #FC8765",
"!. c #FF936C",
"~. c #FF9262",
"^. c #FD8B72",
"/. c #F98372",
"(. c #FF9072",
"). c #290185",
"_. c #2B0197",
"`. c #350199",
"'. c #34018B",
"]. c #3A01A8",
"[. c #3C01B7",
"{. c #2E01AC",
"}. c #580293",
"|. c #720799",
" X c #4301AD",
".X c #4F01A1",
"XX c #4401B3",
"oX c #4B01BB",
"OX c #4701B8",
"+X c #5801B9",
"@X c #5801A9",
"#X c #6701B7",
"$X c #7207AD",
"%X c #7E238B",
"&X c #3E01CA",
"*X c #4B01C4",
"=X c #4801C8",
"-X c #5701CA",
";X c #4801D8",
":X c #5801D7",
">X c #7601C5",
",X c #6601D6",
"<X c #7203D2",
"1X c #4C01E7",
"2X c #5A00E9",
"3X c #5B01F4",
"4X c #5706F8",
"5X c #5915FB",
"6X c #6A03E8",
"7X c #7803E6",
"8X c #6706F5",
"9X c #7605F6",
"0X c #6C16F7",
"qX c #6826F8",
"wX c #5920FD",
"eX c #920893",
"rX c #AD0091",
"tX c #962B8E",
"yX c #920AB1",
"uX c #B002B3",
"iX c #A12FAF",
"pX c #CD0092",
"aX c #F50A89",
"sX c #FF2F8B",
"dX c #C900AC",
"fX c #F30EAE",
"gX c #D438A5",
"hX c #BE4580",
"jX c #BF47A2",
"kX c #C54980",
"lX c #CB4D80",
"zX c #C14680",
"xX c #D35280",
"cX c #DA5880",
"vX c #CC4C8A",
"bX c #FD4786",
"nX c #F55490",
"mX c #EF728E",
"MX c #FF63AC",
"NX c #E24FA6",
"BX c #8702C6",
"VX c #8503D6",
"CX c #950AD4",
"ZX c #AA09D0",
"AX c #8502E9",
"SX c #8503F6",
"DX c #9600F8",
"FX c #930DF0",
"GX c #B005ED",
"HX c #AB2CCF",
"JX c #E90DCA",
"KX c #C911DA",
"LX c #F58590",
"PX c #FF87B7",
/* pixels */
": : : : : : : : : : < < < < < < < < 1 1 1 1 1 1 1 1 1 , , , , , , , , , , , , , , , , , , 2 2 2 2 + + + + + o o o o o o o o o o ",
": : : : : < < < < < < < 1 1 1 1 1 1 1 1 1 r r 6 6 6 6 6 6 6 6 6 6 6 4 4 4 4 4 4 4 4 3 3 , , , , , , @ @ + + + + + + o o o o o o ",
": < < < < < < < 1 1 1 1 1 1 r r 6 6 6 6 6 6 6 6 6 6 6 6 6 6 8 8 8 8 8 8 8 8 6 6 6 8 8 8 4 4 4 4 4 4 , , , , @ @ @ + + + + + o o ",
"< < < < < 1 1 1 1 1 r 0 0 0 0 0 0 0 7 7 7 7 7 7 7 7 7 7 7 7 7 7 7 7 7 7 7 7 7 7 7 7 7 8 8 8 8 8 8 4 4 4 4 4 4 , @ @ @ @ + + + + ",
"9 1 1 1 9 9 9 0 0 0 0 0 0 0 0 q q q q q q q q q q d d d d d d d d d d d d d d d d d d d d d 5 5 5 8 8 8 8 4 4 4 4 # @ @ @ @ @ @ ",
"9 9 9 0 0 0 e e e e q q q q q q q q q g g g b b b b b b b b b b b k k k k k k k k k k k k k f f f f f f 5 5 5 8 8 4 # # 4 @ @ @ ",
"9 0 0 0 e e e e q q q q q g g g c c c c b b b b v v v v b b b b b b m b b b k k k k k k k k k k k k l l f f f f 5 5 8 8 4 # # # ",
"e e e e e e w w w g g g c c c c v v v v v n n n n m m m m m m m m m m m z z z z z z z z z z x x x x x l l l l l f f f 5 5 5 # # ",
"e e e e e w w g g g c c c v v v v n n n n n m m m m m M M M M M V V V V V V V V V V z z z z z z z z z x x x x x l l l f f i i # ",
"e w w w w g g g c c v v v v v n n n n m m m M M M M V V C C C C C C C C C C C C V V V V V V V V V V z z z z z x x x x l l l f i ",
"w w w g g c c c v v v v n n n n m m K M M M C C C C C C C C C C C C C C C C C C C C N N N N N B B B B B B B z z z x x x l l l l ",
"w g c c c F c v G G G G G K K K L L T T T R C C C C C C C C Z Z Z Z Z Z Z A A A A A A A N N N N N N N B B B B B B z z x x x l l ",
"c F F F F F G G G G G K K K L T T R R R R R R R R C Z Z Z Z Z Z Z +.+.+.+.+.+.+.+.+.+.@.@.@.@.o.o.o.o.o.N N N N B B B B z z x x ",
"F F F F G G G G G K K L L T R R R R R R R E E E E E E %.E %.+.+.+.+.+.+.+.+.+.@.@.@.O.O.O.O.@.@.@.@.@.#.#.o.o.....N N N B B z x ",
"F F F F G G G K K L L T T R R R R R R E E E E %.%.%.%.%.%.t.t.t.-.-.-.-.-.y.-.>.>.>.>.>.>.>.>.>.-.O.O.O.O.@.#.#.o.......N B B B ",
"F F G G G K K K J T T T R R R R E E E E %.%.%.%.%.t.t.t.y.y.y.y.y.y.y.i.i.i.i.i.i.i.,.,.,.,.,.>.>.>.>.>.;.O.O.O.O.O.X.......N B ",
"F G G H J J J T T T T R R R E E E $.$.$.%.%.u.t.t.y.y.u.y.y.y.y.i.i.i.i.p.p.p.p.p.p.p.p.,.,.,.,.,.,.,.,.;.;.;.;.4.O.O.O.X.......",
"H H H J J L T T T R R ! E E E E $.$.$.$.$.u.u.y.u.u.y.y.y.i.s.a.2.p.a.a.a.a.a.a.a.a.a.a.a.a.2.2.2.2.<.<.<.:.:.;.;.;.4.O.O.X.X...",
"H H J J L T T T R ! ! E E E $.$.$.$.$.u.u.u.u.u.y.y.y.y.M.nXJXHXjXm.m.m.m.n.n.m.b.b.b.b.b.b.b.b.7.2.2.2.2.2.<.<.:.:.;.;.4.O.X.X.",
"H J J L T T T R ! E ( ( ( $.$.$.$.u.u.u.u.u.y.y.c.c.s.s.mXnXuXSXDXvXm.n.n.n.n.n.n.n.m.b.b.b.b.b.6.7.7.6.7.2.2.2.1.<.<.:.;.;.4.O.",
"J J J T T T R ! ( ( ( &.&.&.&.u.u.u.h.u.c.c.c.c.s.s.k.s.mX .D VXSXgXV.n.B.B.B.B.B.B.V.V.N.N.N.N.N.8.6.6.6.6.6.2.3.1.1.<.:.:.;.4.",
"J J T T R Q ! ( ( ( &.&.&.&.h.h.h.h.h.c.c.c.s.s.s.k.k.k.mX .eXVXSXvXA.G.B.B.B.B.A.A.A.V.V.V.V.V.N.N.N.9.9.6.6.6.6.5.3.1.1.:.:.;.",
"I W W Q Q ! ( ( ( &.&.&.h.h.h.h.h.h.c.c.x.x.x.k.k.k.M.M.L. .rXBXAXjXZ.G.K.Z.Z.Z.Z.Z.Z.Z.A.C.C.C.C.C.N.0.9.9.q.8.6.6.6.5.3.1.:.:.",
"W W Q Q ! ( ( ( &.&.&.d.d.h.h.h.c.c.c.x.x.k.k.k.k.M.G.M.L. .rXBX7XjXD.K.K.K.Z.Z.Z.Z.Z.Z.Z.C.C.C.C.C.C.C.0.0.0.9.q.8.6.6.5.3.1.:.",
"W Q Q Q ! ( ( &.&.&.d.d.h.h.h.j.c.c.x.x.x.k.k.k.H.G.G.G.mXbXrXVX9XjXD.K.K.K.P.P.D.D.D.D.D.D.D.F.C.C.C.C.C.C.w.0.0.9.q.8.5.5.3.1.",
"W Q Q ! ( ( ( &.&.&.d.h.h.h.j.c.c.x.x.k.k.k.k.H.G.G.J.G.mXbXpXBX9XHXP.K.P.P.P.P.D.D.D.D.D.D.D.F.F.F.F.C.C.C.w.w.w.0.9.q.8.5.5.3.",
"W Q ! ! ( ( &.&.&.d.h.f.c.j.j.c.x.x.x.k.k.v.H.G.J.J.L.G.mXbXpXyXAXHXP.P.P.P.P.P.P.D.D.D.D.D.D.D.S.S.F.S.S.C.w.w.w.w.9.9.q.8.5.5.",
"W Q ! ( ) =.&.*.d.d.f.f.g.g.l.l.x.x.z.z.v.v.J.J.J.L.L.G.LXbXpXyXAXCXU.U.mXI./.P./././.E.E.E.E.R.S.S.S.S.S.S.S.w.w.w.w.0.9.q.5.5.",
"Q Q ! ) ) =.&.*.d.f.f.g.g.l.l.x.x.z.z.z.v.H.J.J.J.L.L.K.LXnXdXBXSXAXZXZXCXCXmXW./././.E.E.E.E.E.E.R.S.S.S.S.S.S.e.w.w.w.9.9.q.5.",
"Q ! ) ) =.&.*.d.d.f.f.g.j.l.x.x.x.z.z.v.H.J.J.L.L.L.L.L.LXsXpXZXDX>X:X;X;X3X7XmXW./././.E.E.E.E.E.E.R.R.R.S.S.S.r.e.w.w.w.9.9.q.",
"Q ! ) ) =.*.*.d.f.g.g.g.l.l.x.x.z.z.v.H.H.J.J.L.L.L.L.P.LXU.aXdXrXS uXyXVX6X9XHXW././.^.W.W.W.E.E.E.Q.R.R.R.R.S.r.r.e.w.w.0.9.q.",
"! ! ) ) *.*.d.d.f.g.g.j.l.l.l.z.z.z.v.H.H.J.L.L.L.L.LXMXJXKXaXaXp cXsXfXCX7XAXFX/.^.^.^.^.W.W.W.E.E.Q.Q.R.R.R.S.r.r.r.w.w.w.0.q.",
"! ! ) ) *.*.d.f.f.g.g.l.l.l.l.z.z.v.H.H.J.J.L.L.L.LXnXdXCXSXKX] ' nXfXfXFXAXAXFXmX^.^.^.^.^.W.W.W.E.E.R.Q.R.R.R.S.r.r.r.w.w.0.0.",
"! ! ) ) *.*.d.f.lXlXlXxXl.l.l.z.z.v.H.H.H.J.L.mXL.LXsXuX7X9XGX{ [ fXGXGXGXVX7XAXmX!.^.^.^.^.W.W.W.E.E.E.Q.R.R.R.S.r.r.r.w.w.w.0.",
"! ) ) =.*.*.d.kXlXlXxXxXxXl.z.z.v.v.H.H.H.J.mXfXKXKXfXZX6X9XDXpXD y @X#XVXAX7X9XNX!.^.^.^.^.^.W.!.~.T.T.T.Y.R.R.S.r.r.r.e.w.w.0.",
"/ ) ) *.*.*.d.kXlXlXxXxXxXl.z.cXv.v.H.H.H.LXMXJXAX0XVX#X8X9XVXuXrX, y BXVX7X9X7XgX!.^.^.^.!.!.W.I.nXnXnXnXU.D.Y.Y.r.r.r.e.w.w.0.",
"/ ) ) =.*.hXzXkXlXlXxXxXxXcXcXcXv.v.H.H.mXMXPXJXDX0X0X+X6X9XVXBX$X9 |.>X<X,X6X9XHX^.(.!.!./.vXyXAXSXDXDXDXDXCXjXS.r.r.r.e.w.w.0.",
"! ) ) =.hXhXzXkXlXlXxXxXxXcXcXcXv.v.v.mXsX] MXJXAX0X9X+X:X9X#X@X}.}.}.#X7X9X0X6X<XmX^.vXiX6X3X3X6X6X,X-X-X<X,X,XH.Y.r.r.e.w.w.0.",
"! ) ) =.hXhXzXkXlXlXlXxXxXcXcXcXz.cXMXsX] a ] [ <X9X9X#X,X6X+X@X@X@X#X<X6X8X8X9X8XVX7X3X4X8X8X6X:XoX}.u T ~ ^ *.S.r.r.r.e.e.w.0.",
"/ ) ) =.hXhXzXkXkXlXlXxXxXcXcXcXz.cXMX{ [ a ] j |.7X9X>X,X6X+X.X.X@X+X,X6X8X5XwX0X8X9X0X0X8X2X-X%Xp.S.Q.~.Y.Y.Y.Y.r.r.r.e.e.w.0.",
"/ / ) ) hXhXzXzXkXlXlXxXxXxXcXcXz.nXsX] [ [ s ' y <XVX7X>X6XoX XoX-X2X2X3X4X5XwXqXqX8X8X6X-XtXm.~.~.W.Q.R.R.R.S.S.r.r.r.e.e.w.0.",
"/ / ) ) *.hXhXd.kXkXlXlXxXxXcXcXz.sXsX] a [ ' } h >XSXSXqX6X=XOX;X1X1X1X2X3X3X8X8X8X8X2X$XM.!.W.E.E.E.R.Q.R.R.R.S.r.r.r.e.w.0.0.",
"/ / ) ) *.*.hXd.d.kXlXlXxXxXxXl.cXsXsX{ a a ' ' h $XSX7X0X:XOX;X1X1X1X1X1X4X4X5X8X8X2XiXW.!.E.E.E.E.E.R.R.R.R.S.S.r.r.e.e.w.0.q.",
"/ / ) ) =.*.hXd.d.kXlXlXxXxXxXl.cXaXaXaXD rXrXh i + : t ].[.;X;X1X1X1X1X4X5XwX5X8X2XiXW.^./.E.E.E.E.R.R.R.R.S.S.S.r.r.e.e.w.0.q.",
"/ / ) ) ) *.hXzXd.kXlXlXg.xXxXl. .aXaXdXCXyXeXeXy y }..XBX<X:X;X;X1X1X4X5XwX5X8X3XiXW./././.E.E.E.E.E.R.S.S.S.S.S.r.e.e.w.0.9.q.",
"^ / / ) ) *.hXhXd.kXlXlXg.l.l.l. .{ aXZXVX$XVXAX#X+X-X>XKXZX,X*X;X1X1X4X5XwX8X3XyXE./././.E.E.E.E.E.E.S.S.S.S.S.S.e.e.w.0.0.9.q.",
"^ ^ / ) ) ) *.*.d.d.kXg.g.g.l.l.} { pXBX>X6X6X,X:XXX].XX+X-XOX#X&X&X;X1X4X8X8X7XL./.P./.E.E.E.D.D.D.S.S.F.S.S.C.e.e.w.0.0.9.q.q.",
"^ ^ / / ) ) ) *.*.d.d.g.g.g.g.j.} { rX#X,X,X-X:X-X].'.`.[.[.{.{.{.{.[.=X2X6X3XjXW.P.P.D.D.D.D.D.D.D.S.F.S.S.C.C.e.w.0.0.9.9.q.5.",
"~ ^ ^ / ) ) ) *.*.*.d.d.g.g.g.g. .] 9 }.oX-X-X*X=X`.= = `.[.[.[.[._.`.`. X=XyXP.P.P.P.D.D.D.D.D.D.F.F.F.C.C.C.C.w.0.0.9.9.8.5.5.",
"~ ~ ^ ^ / ) ) ) *.*.*.d.d.f.f.f.} i > * = .X].[.[._.& - _.[.=X=XOX].'.'.`.tXP.P.K.P.D.D.D.D.Z.Z.F.F.F.F.C.C.C.0.0.0.9.9.8.6.5.3.",
"~ ~ ~ ^ ^ / ) ) _ _ *.d.d.d.d.f.| @ X * & - - `.;X_.% '.).].:X-X*X].`.].tXD.K.K.K.Z.Z.Z.Z.Z.Z.Z.F.C.C.C.C.C.0.9.9.9.8.8.6.5.3.1.",
"U ~ ~ ^ ^ / ) ) ) _ &.*.d.d.d.d.| @ X % & & - '.=X_.% &X`.'.*X-X*XOXXX$XP.G.G.Z.K.Z.Z.Z.Z.Z.Z.C.C.C.C.C.C.9.9.9.8.8.8.6.6.3.1.1.",
"U U ~ ~ ^ ^ ! ) ) ) _ *.*.*.&.&.| h X   . & = `.[.`.& ].XX XOX*X*X*X+Xz.K.G.G.G.B.Z.Z.V.V.V.V.V.V.V.C.N.N.9.8.8.8.6.6.3.3.1.1.:.",
"U U ~ ~ ~ ^ ^ ! ) ) ) _ &.&.&.=.| h     . & ).`.=X].= XXoX*X*X*X-X*XtXZ.G.G.G.B.B.B.B.B.B.V.N.N.N.N.N.N.8.8.8.6.6.3.3.1.1.1.:.:.",
"U U U ~ ~ ^ ^ ^ ) ) ) ) ( _ _ =.| h       % - _.=X].'.].*X-X=X*X*X+Xx.B.M.G.B.B.B.B.B.B.B.N.N.N.N.N.N.N.6.6.6.6.3.2.1.1.1.:.:.:.",
"P U U U ~ ~ ^ ^ ^ ! ( ( ( ( ( =.| 3 %   . . % ).=X].`.`.OX*X*XoXoXtXB.k.n.n.n.n.n.n.n.n.b.b.b.b.b.b.b.6.7.7.3.3.2.1.1.<.<.:.;.4.",
"P P U U U W ~ W Q Q ! ( ( ( ( =.' 9 = .   . . ).[.].].`. XOXOXOX@Xc.s.k.s.s.n.n.n.n.n.b.b.b.b.b.a.3.3.3.2.2.2.2.2.<.<.:.:.;.4.O.",
"P P P U U U W ~ W Q Q ! ! ( ! _ ' t '..     . ).[.].].`. XOXOXOXtXs.c.s.s.s.s.a.a.a.a.a.a.a.a.a.2.2.2.2.2.2.2.<.<.:.;.;.;.4.O.X.",
"Y P P U U U U I W ~ W Q Q ! ! | j t '.$ .   . ).[.XX].`. XXXXX@Xh.y.y.y.y.s.s.s.a.a.a.a.a.a.a.2.2.2.2.<.<.<.,.:.;.;.-.4.O.O.X.X.",
"Y Y P P P I I U W W ~ W Q Q ! ' # '._.; $ $ . ).].[.]. XOX X X|.y.u.y.y.y.y.y.i.i.p.p.p.p.p.p.,.,.,.,.,.,.>.>.;.-.-.O.O.X.X.....",
"F Y Y Y P P I I U I W W Q Q Q j > = ).= ; ; & ).].[.[. XOXXX XtXy.t.u.u.u.u.y.y.y.y.y.i.i.i.>.>.>.>.>.>.>.-.-.O.O.O.O.X.........",
"F F F Y P P P P I I I W W W ` i * = = ).).).= ).].[.XXOXoXOX@X! t.t.t.t.t.t.t.t.-.-.-.-.-.-.-.-.-.-.-.O.O.O.@.O.#.o.o.......N B ",
"S F F F Y Y P P H I I I J W j + & = = )._.{._._.`.[.XXOXoXoX|.E %.%.t.t.t.t.t.-.-.-.-.-.-.-.+.+.+.@.@.@.@.#.o.o.o.....N N B B B ",
"S S F F F F Y Y H H H J J I h O & = ; )._.{.{._.].[.XXOXOXOXeX%.E E E E E E Z Z Z +.A A A A A A o.o.o.o.o.o.o...N N N B B B z x "
};
