/* XPM */
static char *a02oi_5mxwo[] = {
/* columns rows colors chars-per-pixel */
"64 64 256 2 ",
"   c #391A39",
".  c #261136",
"X  c #2C152C",
"o  c #5A0907",
"O  c #591618",
"+  c #4E130F",
"@  c #680B07",
"#  c #770C07",
"$  c #68150B",
"%  c #76170A",
"&  c #671817",
"*  c #791715",
"=  c #6D0E13",
"-  c #572A10",
";  c #78280A",
":  c #782717",
">  c #6D3212",
",  c #461B37",
"<  c #50172B",
"1  c #681925",
"2  c #781927",
"3  c #512D30",
"4  c #682726",
"5  c #792737",
"6  c #6D3330",
"7  c #6A4419",
"8  c #774916",
"9  c #794E14",
"0  c #795527",
"q  c #704930",
"w  c #695130",
"e  c #0C065A",
"r  c #160B5B",
"t  c #1C1050",
"y  c #271549",
"u  c #371B46",
"i  c #281856",
"p  c #351C59",
"a  c #260D52",
"s  c #3B2349",
"d  c #372357",
"f  c #0A0666",
"g  c #180B67",
"h  c #070579",
"j  c #180C76",
"k  c #1B1379",
"l  c #1D136B",
"z  c #220E69",
"x  c #271569",
"c  c #331969",
"v  c #260E73",
"b  c #271577",
"n  c #341A79",
"m  c #38246E",
"M  c #4A1C48",
"N  c #452757",
"B  c #4E2B4C",
"V  c #6F304F",
"C  c #4E1D6F",
"Z  c #502D6D",
"A  c #703271",
"S  c #704C4C",
"D  c #57466A",
"F  c #704E71",
"G  c #6B575E",
"H  c #890C06",
"J  c #970B08",
"K  c #88170A",
"L  c #97180B",
"P  c #881714",
"I  c #961A17",
"U  c #960E12",
"Y  c #B70E08",
"T  c #A8160B",
"R  c #B7150A",
"E  c #A91917",
"W  c #A9100D",
"Q  c #86280A",
"!  c #98270B",
"~  c #89350B",
"^  c #98360B",
"/  c #882716",
"(  c #982418",
")  c #863816",
"_  c #963816",
"`  c #A6280B",
"'  c #A72915",
"]  c #B42816",
"[  c #A83516",
"{  c #B43517",
"}  c #AC370A",
"|  c #882B36",
" . c #8F2C2D",
".. c #AD3626",
"X. c #A21922",
"o. c #C8170A",
"O. c #D4170A",
"+. c #C11A10",
"@. c #C72E0F",
"#. c #E21B0A",
"$. c #9A4609",
"%. c #884616",
"&. c #964818",
"*. c #875A18",
"=. c #975917",
"-. c #894F0B",
";. c #A54B15",
":. c #A65614",
">. c #B2500E",
",. c #89601A",
"<. c #966516",
"1. c #9B711A",
"2. c #B7690B",
"3. c #A86616",
"4. c #B96A15",
"5. c #B87715",
"6. c #AB7112",
"7. c #855826",
"8. c #955926",
"9. c #914A2E",
"0. c #AE5029",
"q. c #8B6524",
"w. c #976627",
"e. c #9A752A",
"r. c #936937",
"t. c #A66927",
"y. c #A77929",
"u. c #B67729",
"i. c #A67932",
"p. c #B67837",
"a. c #AF6836",
"s. c #CB5110",
"d. c #CA6618",
"f. c #C67915",
"g. c #D2710F",
"h. c #CA5224",
"j. c #C8742A",
"k. c #EB6D16",
"l. c #8E364E",
"z. c #933A5E",
"x. c #8B534F",
"c. c #AA544C",
"v. c #986B50",
"b. c #AD714B",
"n. c #904F6E",
"m. c #92716B",
"M. c #AF6D69",
"N. c #AC546B",
"B. c #D76755",
"V. c #B98516",
"C. c #B18315",
"Z. c #B8872A",
"A. c #B98735",
"S. c #AE8A30",
"D. c #9F8033",
"F. c #CA860B",
"G. c #C88716",
"H. c #D78A15",
"J. c #CB9516",
"K. c #D79915",
"L. c #D8920C",
"P. c #E59711",
"I. c #DCA60E",
"U. c #D9A614",
"Y. c #D8B113",
"T. c #E7A80C",
"R. c #EAB80D",
"E. c #E4A718",
"W. c #E9B816",
"Q. c #F2B60C",
"!. c #C68628",
"~. c #D38C25",
"^. c #D89A27",
"/. c #D59C35",
"(. c #CA8F35",
"). c #DCA627",
"_. c #DAA738",
"`. c #D7B235",
"'. c #E1A826",
"]. c #E5B428",
"[. c #E5B938",
"{. c #E3AB37",
"}. c #E49529",
"|. c #F7C70A",
" X c #F0CC11",
".X c #F0CE34",
"XX c #E4D519",
"oX c #BA9656",
"OX c #B28B4A",
"+X c #AF8D69",
"@X c #BAA374",
"#X c #CC964C",
"$X c #D6A946",
"%X c #DCB548",
"&X c #D1AD52",
"*X c #E3B845",
"=X c #E3AF4F",
"-X c #CF936C",
";X c #D2B36C",
":X c #E29F6C",
">X c #DEC354",
",X c #E6C34A",
"<X c #EACB4F",
"1X c #FBE94C",
"2X c #D9C474",
"3X c #E5CA6E",
"4X c #080588",
"5X c #140A89",
"6X c #1C1487",
"7X c #170A97",
"8X c #100A98",
"9X c #261587",
"0X c #361A86",
"qX c #220E96",
"wX c #281599",
"eX c #361B97",
"rX c #200F87",
"tX c #362990",
"yX c #190CA7",
"uX c #1C11A5",
"iX c #190BB8",
"pX c #180EB2",
"aX c #250EA5",
"sX c #2815A7",
"dX c #3619A9",
"fX c #2817B7",
"gX c #3618B4",
"hX c #230CB9",
"jX c #3323B2",
"kX c #502E8C",
"lX c #74348D",
"zX c #4B28AB",
"xX c #5F23A8",
"cX c #57478B",
"vX c #6E5991",
"bX c #1D0CC4",
"nX c #250DC9",
"mX c #2713C6",
"MX c #2C0FCF",
"NX c #6326C7",
"BX c #87388C",
"VX c #812CA2",
"CX c #934B89",
"ZX c #A75AA5",
"AX c #D270A7",
"SX c #6F96AE",
"DX c #B7AE8F",
"FX c #A79794",
"GX c #E58F8B",
"HX c #CCB68F",
"JX c #D0A29E",
"KX c #D6C68A",
"LX c #E4CD89",
"PX c #F3E680",
"IX c #B8C4CD",
"UX c #BDC0BE",
/* pixels */
"0 i h h 4Xh f s oXG e e e e r d G OXoXoXv.V V V   s y s 8.t.i.3 .   u . y s S S i t s S x.#X$X=X$X(.b.x.N l f f f f h k j 4X4X4X",
"h h h h h h h f d e e r e x i d G v.v.b.S B u u M u y i S v.v.3 . . y t y B s d i i   q r.(.$X$X#XoXx.A m j f f f h h 4X4X8X8X8X",
"h 4X4Xh 4Xh h h f f f e f l x x Z F V S B M N u s s p i B OXi.q 3 3 , s y y r r r p B 6 9.p.p.b.b.F F kXb j h h h h 4X4X8X8X8X8X",
"h j m F 6X4Xh h h f f f f f x x c Z Z N y y i t y B S q 0 q.,.8 8 8 7 > 7 3 B i r x Z B V V x.n.F C 9XrX5X4X4X4X4X4X4X8X8XyXyXyX",
"m.i.u.#XkX4X4Xh h h j g f g n n b Z m C i r i B 6 6 6 3 6 7 7 0 0 7 > 3 3 3 3 w B c v c C A F Z C 0XqX7X5X5X5X5X8X5Xn A x.F wXyX",
"m.m.S Z 6X5X5X5Xb b k b j b n n b b c c z d S 3 y c c i t u q 0 0 q   i l g r p 6 S Z 0XkXC C kX0XeXqX8X5X5X7XyXeXx.a.j.OXkXyXuX",
"8X8XyX7X8X5X5X7XZ x.S D b 0XkXb b b b b Z S B z l x g r r g d 0 0 N g g g l g g g N x.n.kXn b 0X9X7X7X7X7X7XyXkXv.p.p.oXcXaXuXfX",
"8XyXuXuX7X7X7X7X7XZ x.m.F kX0X9Xb b b D S d x g j l g g g z z B q g e e l b b z j v C M.m.n v j 9XwXaXaXaXyXkXv.a.b.+XcX8XsXfXfX",
"yXyXuXuXaX7X7X7X7XqX9X9XkXF kX9X0Xn F x.c v g f j g g g g j g N B f e e g v b b b b 9XkXn.S b j 9XwXgXgXaXtXn.x.F kXwX8X8X8XsXgX",
"uXaXaXaXsXsXqX7XqXqX5Xh b F F eX0XD S d z g e f f f j j v j g p N r r e e g b 0X0Xv v b b A V n rXuXgXgXsXkXkXwXuXyXyX7XyX8X7XsX",
"5X7XaXsXgXgXsXqXqX7Xj h j m kXtXZ S p a y . . f e f j 9X9Xv g c i r r r r f j 0X0Xg r r f z M N wXsXfXgXgXgXsXuXuXuXuXuXyXyX7X7X",
"h 5XsXdXgXgXgXwXqXj j j l k cXF 3 O < , < H < e f f j b v v v p N g r r g g l v kX9X8Xe f f f x Z cXgXdXgXkXkXsXwXsXsXuXuXuXuX7X",
"k 5X5XsXdXgXgXdX9Xj l x m D D V 1 T * , U Y y g g x z g z v z m.+Xp g g g z z z c b iX7Xf 5XyXj Z F vXzXzXCXn.zXdXsXaXsXsXuXuXaX",
"F 9X5X6XwXdXgXdXk l m D D S < < U O.P O Y I r r n FXr.a r z r G oXi r z c m.D z x c hXiXj 7XMXyXj x F lXZXAXAXlXdXwXwXwXwXwXwXgX",
"m.tX5Xj 6XeXdXwXk m Z m.q 4 L & U O.= * o.2 r r m F i.u t c p S.[.B t a N oXF c C C aXnXqX5XMXyX5XaX0XCXJXAXJXZXzXeXeXeXwXdXzXNX",
"9X6X6Xk k b 0X9Xb D m.Z 6 I o.* U O.* * o.2 t r vX+XA.D.B Z v..X.XA.s y 7./.m.C C C sXnX5X7XMXgXsXMXdXvXJXJXGXAXZXkXeXeXdXzXNXNX",
"6X9X9Xk j n kXkXcXD Z 3 1 I O.* P o.U K o.P t i m S y.<X>X;X.X1X1X.X&XA.L.$XCXC C C gXhX7XpXnXeXeXMXjXtXvXHXGXGXAXZXlXkXzXxXxXxX",
"6Xk b b n kXlXlX+XF N / I P O.L P Y o.J Y R . i y   w.[.1X1X1X1X1X1X1X1X^.9.V A A C mXpX7XmXfXtXsXMXeXqXkXDXHX;XGXAXAXlXlXVXxXxX",
"b b b b kXlXlXn.CXA B ' o.* Y o.K W o.o.Y o.O . . . r.&X>X%X&X%X%X$X$X%XA.6 M B M v MXiXmXmXuX9XmXpX9XnXzXFXHXLXKXGXAXCXBXVXVXlX",
"b x z C BXCXn.@Xn.CXl.' #.K T o.R Y Y O.Y o.Y + . . r././././.%X_.!.!._.u.6 ,   r hXbXiXnXpXpXhXbX7X7XMXzXFXKX2X2XGXAXA A lXBXBX",
"x x c lXlXCXCXn.A z.l.( O.R H Y o.W Y O.O.Y Y # X   b.(.!.Z.Z.].^.u.!._.A.q , . 5XiXiXMXbXiXyXbXpX5XiXnXkXm.;X:X:X:XN.A A A n.N.",
"c c A lXlXCXDXM.z.l.* P T o.T Y Y Y O.o.O.Y W W $ 3 3 3 3 3 3 6 6 4 4 3 < 3 3 i yXyXiXbXbXnXpXiXyXyXbXqXn Z +X-X:X;Xn.A A A M.-X",
"A Z BXBXBXn.+XM.z.l.+.Y U Y o.W Y o.O.o.+.@.h.#X;X;X&XOXq , , < < X X 7 S.;X2XHXFXvXzXjXhXMXiXpXyXbXyX7XaXzX+X-X#XoXx.A A z.v.+X",
"A C A CXBXn.n.n.z.l.X.o.O.T Y Y R O.O.s.=X3X,X_.j.$X3X3X`.<.3 3 O + *.`.3X3X$Xj.}.,X2XKXvXmXMXyXpXpXyXnXfXlXv.-Xb.c.x.V V A z.n.",
"C p N A n.-X;Xc.z.|  .E O.O.O.Y Y O.o.g.}.(.(./._.%X>X>X[.U.9 - - 8 K.[.>X>X%X_.oXm.m.+Xp.dXMXyXiXnXnXmX0XV v.b.a.;X-Xl.V V V V ",
"Z N N Z z.M.M.c.N.l.P P L R O.o.O.O.O.@.@.s.d.j.[.>X%X[.[.E.6.> > 3.E.].[.%X>X%XOXv.vXjXkXfXbXnXiXbXuXb c m x.9.9.b.v.| 5 V V V ",
"Z Z Z B V N.M.N.N.n...R T L T Y o.O.o.O.s.d.d.~.^.`.,X[.'.E.K.3.:.K.E.'.[.,X%X/.~.a.c.F mXfXmXfXpXqX9XrXsXC  .9.9.a.9.| | 5 5 5 ",
"N N M M B v.LX-Xm.x.q ( R O.o.O.o.O.O.O.O.O.o.s.^.).).].].E.U.{.{.U.E.W.].).).^.c.zXgXzXmXmXmXmXmXhXiXyXx < 5 &.OXLXb. .| | 5 5 ",
"u u u     S OXv.x.V  .: K T R O.#.o.+.o.+.o.o.s.E.].].].E.E.P.=X=XL.E.E.].].].'.v.jXjXfXfXfXhXMXnXyX5Xg a M / _ a.oX8. . .| | | ",
"M M M M , 3 3 6 6 3 | ] R T T O.O.O.+.R R +.@.P.].].].].E.Q.|.<X.XT.W.].].].].].^.kXjXjXfXfXmXMXhX7XyXpX0X5 Q _ _ [  ./  . . .l.",
"M M , , , , 6 @XoX6 V q / L R o.O.o.R T o.R s.K.K.W.W.W.Q.T.|. XQ.Q.T.R. XW.W.E.K.x.jXfXsXsXmXnXiXyX6Xp 1 ; ~ #X;X0..... . . .c.",
"    , , , , 6 oXoX9.V 6 : % % L +.O.o.R R T >.f.F.I.R. X XI.E..XE.T.R. X XR.T.H.g.9.eXjXsXfXmXhXj g t u & ; ~ OX#X0.[ .... .0.0.",
"  , , , , 3 | | | x.6 4 P T R W o.o.Y o.R T >.H.L.L.K.$X*X*X2X3X3X=X*X>X'.L.K.L.H.9.tXjXfXfXhXiXyXuXn M ; ; &.Q ! _ [ ......a.j.",
", , , < < 5  . .9.;X;Xw.O 4 : % H T o.o.R T >.Y.K.T.E..X&X&X;X=X3X#X&X=XW.T.T.K.I.x.eXsXfXfX9Xz y , & ; =.&X;X;.^ ! [ [ ..0.0.a.",
"5 < < < 5  . .| 9.;X2X7.O O & P K T J T L K ~ C.F.R. XR..X;X#X^./.;X*X X X XR.K.V.N n b rX6XwXc u O $ $ %.;X2X;.! ! ' ' ( (  . .",
"l.5 < < |  .| 1 1 9.4 4 O > - + + + + > -.3.3.=.-.C.Y.Y.=XB.B.h.M.m.+X.XU.Y.V.6.%.0 ,.,.8 - + + + + - > ; ~ 8.! ! ! ' ( ( ( ( ( ",
"l.l.5 1 | | 1 1 1 > 7 + O &./.e.,.5.J.K.P.^.3.*.i.S.D.$X3XB.B.FXFXF KX%XC.V.6.-.3.=.3.).P.K.J.y.*.e.).$.$ $ Q ` ! ` ` ! ( ( ( ( ",
"l.| 5 1 2 1 1 1 4 p.Z.7.8 7 *.3.~.^.*X'.'.=.7 Z.[.]..X3X<Xb.m.FXvXSX;X3X,X).F.G.G.6.> <.).).=X^.~.3.8 - > w.p.h.` ` ! ! L ( I ( ",
"| | 1 < O 1 1 1 5 a.w.r.(.S.e.> 9 -.!.J.-.- 5.'.K.Z.;XHXLX&XG SXSXDX3XDXHX5.:.K.E.^.3.- =.^.!.%.%.> t.t.w.u.A.h.` ! ! ! L I ( ( ",
"| | 1 O O O 1 1 4 9.r.0 A.0 q.y.e.7 *.y.8 > J.^.)._._.@XDXLX2XDXKXLXHXDXoXK.2.~.^.V.G.> w.Z.<.7 9 *.A.t.0 w.&.! ! L L L L I I I ",
" .4 6 %.6 4 O & O O - 6 (.0 0 A.u.e.i.u.=.9 9 > G.5.6.Z.;XHXUXHXHXDX;X%XJ.u.:.4.J.J.=.8 w.Z.Z.y.i.w.p.t.0 0 > K ^ ! L L I I I I ",
"1 4 9.9.9.6 O O O + O c.#X0 e.e.w.i.8.q.e.i.q.9 <.1.e.C.J.S.OXoXoXS.<.<.5.-.> -.G.!.q.i.y.u.8.t.w.w.q.7.> $ % ! ^ ;.' ( ( I I I ",
"1 4 9.9.9.: & + + + O 9.0 0 q.7 7 w.8.0 i.t.p.!.Z.y.S.y.*.9 -.,.-.C.S.9 9 S.,.- y.!.t.i.q.t.8.w.q.*.> $ $ % K ! ^ >.>.' I I I I ",
"1 2 ) &._ ) & + + + O O > 6.=.=.9 w.e.i.*.e.e.A.j.*.i.y.D.e.y.S.<.S.(.D.e.Z.,.> Z.u.t.w.e.,.e.,.<.<.3.; % % ! ^ ^ ;.0.{ ' I I I ",
"& & : _ &.%.: + + & : - 3.P.f.U.J.6.1.,.7 7 0 y.y.7.e.y.(.Z.(.A.y.y.S.#XA.D.*.> A.e.y.9 ,.1.1.J.H.d.H.&.# Q ! ! ' [ [ { { ' I I ",
"* = : &.&.&.: O & * : > d.k.k.Q.R.W.T.V.5.6.e.q.q.9 - 7./.Z.e.S.*.7 9 S.D.- + > i.,.e.C.G.W.R.Q.T.k.k.;.$ ! ! ' ' ' { { { { ' I ",
"P * * _ _ Q & & * / % ) }.k.P. X|. XH.T.R.U.V.6.<.9 > 7.Z.C.9 7 - - > 9 9 9 -.<.6.C.J.U.K.|.|.|.|.k.k.4.; ! ' [ { { ] ] ] ] ] E ",
"X.I * * % $ $ * P / 5.,X].g.H.T.|.U.3.G.U.G.J.Y.K.G.J.5.1.<.<.=.=.<.6.5.5.G.J.J.U.R.5.2.3.I.|.|.W.f.G.J.F.$.' [ { ] ] ] s.] I I ",
"X.X.I * = = * P P P f.XX Xg.2.f.K.I.K.I.K.J.5.J.J.Y.W.K.K.K.G.J.J.f.J.K.K.K.K.J.2.2.$.5.5.U.I.G.5.>.L. XI.} ` ' ] ] ] { g.h.' I ",
"E E E P = * P P P P / $.$.; <. XY.J.J.R.K.K.G.G.:.4.G.G.K.E.g.H.H.g.T.f.F.:.4.2.3.:.2.G.G.G.U.W.Y.> % ^ ! L ` ] ] ] ] ] d.d.d.j.",
"E E E E U I I I I P K @ + > G.R.U.G.;.:.5.G.J.J.5.5.V.J.G.G.d.H.5.f.W.5.;.:.V.G.J.G.G.4.;.:.J.U.U.3.- o # H L ] ] ] ] ] E { j.(.",
"] E E ] T I I L ! ! ; ; <.6.C.Y.Y.U.J.G.4.:.6.G.K.K.I.R.G.G.f.H.f.G.T.P.G.I.Y.J.5.:.;.4.f.J.Y. XY.,.-.) ; Q L L E E ] h...W I I ",
"s.] @.@.` L L ` >.F.F.2.; *.XX XY.6.%.; ; :./.%X*X).).K.K.P.P.P.P.P.L.K.J.J.).H.4.f.$.% Q $.2.Y.XXY.> ; V.F.2.} T E { =X#XE W U ",
"s.@.s.s.>.( H ` g.XX|.L.6.R.J.=.; o $ > 3.).(.3.G.).[.U.U.U.].3X,XU._.$X$X/.4.:.^ !.^.$.Q K J ! :.U.Y.6. X|.Q.s.` W E ..0.W W U ",
"@.s.d.d.>.[ L ! d.Q.Q.F.T.6.; @ o o ; =.=.&.f.2.8.(.).K.).[.<XPX1XR.)./.(.5.$.~ f.4.;.:.:.K H H H ! F.T.T.|.Q.s.T J W J J J J U ",
"d.d.d.d.>.} ! K ! >.>.2.V.; @ @ @ @ $ $ o o % ~ #X!.(.u.3..X<X1XXX|.F.:.!.4.F.~ ~ % @ # # # H H H H $.L.L.L.P.d.T W Y W J J ` >.",
"} >.>.d.>.>.} ! K ! >.U.I.2.Q @ @ @ ) %.~ ; o o %.; $ %.%.Z.[..X XL.>.~ : ; t.$ @ # # H H H L J H ! J.R.T.g.g.g.s.R Y Y Y J L L ",
"` 0.2.^.g.~.H.>.[ ` g. X|.T.^ @ @ Q =.8.8.) @ @ o o o ; %.$.:.5.2.$.Q % @ o o o @ K # H H L J H L } R.|.Q.d.} s.s.g.d.>.(.[ [ L ",
":.=X~.*XK.<X]._.{.>.s.P.T.g.^ @ % $.$.;.&.% @ # % o o O ; ~ ~ ; ~ Q % % = @ o o @ K L H T T J J J ` d.L.g.} ` ~.(.f.=Xu.3Xu.=X:.",
"!.j._.%X_.<X*X<XK.2.>.>.>.} K % ;.>.>.$.; % # @ = $ & 4 %.%.%.) : &.) ) &.# @ @ @ K L ` ] T T L H L ` ` ! L ^ f.,X(.%X(.&X_.!.!.",
"%X(.#X&X$X%X[.K.K.P.>.L H L ;.f.~.j.4.^ @ % = @ @ $ $ 8.7.8 > 9.: t.) _ t.Q K # @ % L ] @.] L L 4.} J J H $.K.(.G.%X#X#X&X#X/.[.",
"~.$XOX$X$X%X^.^.F.2.^ # _ 0.f.}.H.g.4.% K P % * % $ $ : > + 4 & : &.&.3.u.:._ ^ Q ! { @.@.@.J 0.$X4.0._ H ^ 2.G.^./.$X$X$XOX_.J.",
"f.p.@XHX&X`._.K.H.L.2./ &.$X_.(.;.^ ^ &.K % P / $ $ @ $ $ o o $ $ ~ =.u.u.u.t.&.Q K { s.h.h.` ' (.H.'.t._ 2.L.H.^._._.&XDX@Xp.f.",
"G.#XUXIXHX).~.f.f.>.:.u.4.G.^.G.f.5.$Xa.L K % / $ $ % $ o O o $ $ ; =.j.u.u.u.:.^ ^ >.k./.=Xf.f.G.P.T.]./.d.d.f.~.K.'.HXIXUX#XG."
};
